<?xml version="1.0" standalone="no"?>
<!DOCTYPE svg PUBLIC "-//W3C//DTD SVG 1.1//EN" "http://www.w3.org/Graphics/SVG/1.1/DTD/svg11.dtd" >
<svg xmlns="http://www.w3.org/2000/svg" xmlns:xlink="http://www.w3.org/1999/xlink" version="1.1">
<metadata>
Created by Christoph Koeberlin (http://christoph.koe.berlin)
Copyright (c) 2020 Swiss Typefaces Sarl. All rights reserved.
</metadata>
<defs>
<font id="Font" horiz-adv-x="630" >
  <font-face 
    font-family="Font"
    font-weight="700"
    font-style="italic"
    font-stretch="normal"
    units-per-em="1000"
    panose-1="2 11 8 4 0 0 0 0 0 0"
    ascent="800"
    descent="-200"
    x-height="538"
    cap-height="725"
    bbox="-260 -206 1125 882"
    underline-thickness="100"
    underline-position="-88"
    slope="-12"
    unicode-range="U+0020-2022"
  />
<missing-glyph horiz-adv-x="703" 
d="M619 0h-500v725h500v-725zM585 706h-433l217 -328zM138 29l220 333l-220 334v-667zM600 696l-221 -334l221 -333v667zM585 19l-216 327l-217 -327h433z" />
    <glyph glyph-name=".notdef" horiz-adv-x="703" 
d="M619 0h-500v725h500v-725zM585 706h-433l217 -328zM138 29l220 333l-220 334v-667zM600 696l-221 -334l221 -333v667zM585 19l-216 327l-217 -327h433z" />
    <glyph glyph-name="glyph1" horiz-adv-x="0" 
 />
    <glyph glyph-name="glyph2" horiz-adv-x="204" 
 />
    <glyph glyph-name="space" unicode=" " horiz-adv-x="204" 
 />
    <glyph glyph-name="comma" unicode="," horiz-adv-x="276" 
d="M65 0h-73l38 178h186l-40 -188l-135 -148h-97z" />
    <glyph glyph-name="hyphen" unicode="-" horiz-adv-x="449" 
d="M414 338l-31 -145h-353l31 145h353z" />
    <glyph glyph-name="period" unicode="." horiz-adv-x="276" 
d="M216 178l-38 -178h-186l38 178h186z" />
    <glyph glyph-name="slash" unicode="/" horiz-adv-x="362" 
d="M438 755l-305 -755h-165l305 755h165z" />
    <glyph glyph-name="zero" unicode="0" horiz-adv-x="703" 
d="M334 -13q-137 0 -207 83t-70 224q0 115 34 215t111 164t198 64q141 0 211.5 -82.5t70.5 -224.5q0 -114 -34.5 -214.5t-112.5 -164.5t-201 -64zM345 109q62 0 100 52.5t54 125.5t16 142q0 85 -31.5 135.5t-89.5 50.5q-62 0 -100 -52.5t-54 -125.5t-16 -142
q0 -85 31.5 -135.5t89.5 -50.5z" />
    <glyph glyph-name="A" unicode="A" horiz-adv-x="718" 
d="M667 0h-181l-22 176h-248l-97 -176h-187l427 725h188zM419 543l-126 -228h154z" />
    <glyph glyph-name="A" unicode="&#x104;" horiz-adv-x="718" 
d="M667 0h-181l-22 176h-248l-97 -176h-187l427 725h188zM419 543l-126 -228h154z" />
    <glyph glyph-name="A" unicode="&#x102;" horiz-adv-x="718" 
d="M667 0h-181l-22 176h-248l-97 -176h-187l427 725h188zM419 543l-126 -228h154z" />
    <glyph glyph-name="A" unicode="&#x100;" horiz-adv-x="718" 
d="M667 0h-181l-22 176h-248l-97 -176h-187l427 725h188zM419 543l-126 -228h154z" />
    <glyph glyph-name="A" unicode="&#xc6;" horiz-adv-x="718" 
d="M667 0h-181l-22 176h-248l-97 -176h-187l427 725h188zM419 543l-126 -228h154z" />
    <glyph glyph-name="A" unicode="&#xc5;" horiz-adv-x="718" 
d="M667 0h-181l-22 176h-248l-97 -176h-187l427 725h188zM419 543l-126 -228h154z" />
    <glyph glyph-name="A" unicode="&#xc4;" horiz-adv-x="718" 
d="M667 0h-181l-22 176h-248l-97 -176h-187l427 725h188zM419 543l-126 -228h154z" />
    <glyph glyph-name="A" unicode="&#xc3;" horiz-adv-x="718" 
d="M667 0h-181l-22 176h-248l-97 -176h-187l427 725h188zM419 543l-126 -228h154z" />
    <glyph glyph-name="A" unicode="&#xc2;" horiz-adv-x="718" 
d="M667 0h-181l-22 176h-248l-97 -176h-187l427 725h188zM419 543l-126 -228h154z" />
    <glyph glyph-name="A" unicode="&#xc1;" horiz-adv-x="718" 
d="M667 0h-181l-22 176h-248l-97 -176h-187l427 725h188zM419 543l-126 -228h154z" />
    <glyph glyph-name="A" unicode="&#xc0;" horiz-adv-x="718" 
d="M667 0h-181l-22 176h-248l-97 -176h-187l427 725h188zM419 543l-126 -228h154z" />
    <glyph glyph-name="B" unicode="B" horiz-adv-x="675" 
d="M5 0l154 725h270q111 0 177 -41.5t66 -126.5q0 -56 -33 -102t-91 -73q85 -50 85 -143q0 -71 -37.5 -125t-108 -84t-166.5 -30h-316zM299 581l-31 -146h105q52 0 81.5 20t29.5 61q0 27 -21.5 46t-58.5 19h-105zM241 308l-34 -164h114q65 0 97 22t32 69q0 32 -25 52.5
t-70 20.5h-114z" />
    <glyph glyph-name="C" unicode="C" horiz-adv-x="651" 
d="M430 133q34 0 79.5 9.5t76.5 20.5l-34 -159q-74 -17 -150 -17q-102 0 -182.5 40t-126 114.5t-45.5 174.5q0 128 59.5 223.5t159.5 146.5t217 51q130 0 216 -35l-34 -158q-44 22 -85.5 34.5t-103.5 12.5q-71 0 -127.5 -34t-88.5 -95t-32 -140q0 -92 53 -140.5t148 -48.5z
" />
    <glyph glyph-name="C" unicode="&#x10c;" horiz-adv-x="651" 
d="M430 133q34 0 79.5 9.5t76.5 20.5l-34 -159q-74 -17 -150 -17q-102 0 -182.5 40t-126 114.5t-45.5 174.5q0 128 59.5 223.5t159.5 146.5t217 51q130 0 216 -35l-34 -158q-44 22 -85.5 34.5t-103.5 12.5q-71 0 -127.5 -34t-88.5 -95t-32 -140q0 -92 53 -140.5t148 -48.5z
" />
    <glyph glyph-name="C" unicode="&#x10a;" horiz-adv-x="651" 
d="M430 133q34 0 79.5 9.5t76.5 20.5l-34 -159q-74 -17 -150 -17q-102 0 -182.5 40t-126 114.5t-45.5 174.5q0 128 59.5 223.5t159.5 146.5t217 51q130 0 216 -35l-34 -158q-44 22 -85.5 34.5t-103.5 12.5q-71 0 -127.5 -34t-88.5 -95t-32 -140q0 -92 53 -140.5t148 -48.5z
" />
    <glyph glyph-name="C" unicode="&#x108;" horiz-adv-x="651" 
d="M430 133q34 0 79.5 9.5t76.5 20.5l-34 -159q-74 -17 -150 -17q-102 0 -182.5 40t-126 114.5t-45.5 174.5q0 128 59.5 223.5t159.5 146.5t217 51q130 0 216 -35l-34 -158q-44 22 -85.5 34.5t-103.5 12.5q-71 0 -127.5 -34t-88.5 -95t-32 -140q0 -92 53 -140.5t148 -48.5z
" />
    <glyph glyph-name="C" unicode="&#x106;" horiz-adv-x="651" 
d="M430 133q34 0 79.5 9.5t76.5 20.5l-34 -159q-74 -17 -150 -17q-102 0 -182.5 40t-126 114.5t-45.5 174.5q0 128 59.5 223.5t159.5 146.5t217 51q130 0 216 -35l-34 -158q-44 22 -85.5 34.5t-103.5 12.5q-71 0 -127.5 -34t-88.5 -95t-32 -140q0 -92 53 -140.5t148 -48.5z
" />
    <glyph glyph-name="C" unicode="&#xc7;" horiz-adv-x="651" 
d="M430 133q34 0 79.5 9.5t76.5 20.5l-34 -159q-74 -17 -150 -17q-102 0 -182.5 40t-126 114.5t-45.5 174.5q0 128 59.5 223.5t159.5 146.5t217 51q130 0 216 -35l-34 -158q-44 22 -85.5 34.5t-103.5 12.5q-71 0 -127.5 -34t-88.5 -95t-32 -140q0 -92 53 -140.5t148 -48.5z
" />
    <glyph glyph-name="D" unicode="D" horiz-adv-x="745" 
d="M353 725q107 0 192.5 -32.5t136 -100t50.5 -168.5q0 -229 -151.5 -326.5t-381.5 -97.5h-194l154 725h194zM326 581h-27l-92 -437h25q137 0 226.5 56t89.5 209q0 94 -63 133t-159 39z" />
    <glyph glyph-name="D" unicode="&#x110;" horiz-adv-x="745" 
d="M353 725q107 0 192.5 -32.5t136 -100t50.5 -168.5q0 -229 -151.5 -326.5t-381.5 -97.5h-194l154 725h194zM326 581h-27l-92 -437h25q137 0 226.5 56t89.5 209q0 94 -63 133t-159 39z" />
    <glyph glyph-name="D" unicode="&#x10e;" horiz-adv-x="745" 
d="M353 725q107 0 192.5 -32.5t136 -100t50.5 -168.5q0 -229 -151.5 -326.5t-381.5 -97.5h-194l154 725h194zM326 581h-27l-92 -437h25q137 0 226.5 56t89.5 209q0 94 -63 133t-159 39z" />
    <glyph glyph-name="D" unicode="&#xd0;" horiz-adv-x="745" 
d="M353 725q107 0 192.5 -32.5t136 -100t50.5 -168.5q0 -229 -151.5 -326.5t-381.5 -97.5h-194l154 725h194zM326 581h-27l-92 -437h25q137 0 226.5 56t89.5 209q0 94 -63 133t-159 39z" />
    <glyph glyph-name="E" unicode="E" horiz-adv-x="616" 
d="M511 0h-506l154 725h506l-32 -151h-335l-27 -126h314l-32 -151h-314l-31 -146h335z" />
    <glyph glyph-name="E" unicode="&#x11a;" horiz-adv-x="616" 
d="M511 0h-506l154 725h506l-32 -151h-335l-27 -126h314l-32 -151h-314l-31 -146h335z" />
    <glyph glyph-name="E" unicode="&#x118;" horiz-adv-x="616" 
d="M511 0h-506l154 725h506l-32 -151h-335l-27 -126h314l-32 -151h-314l-31 -146h335z" />
    <glyph glyph-name="E" unicode="&#x116;" horiz-adv-x="616" 
d="M511 0h-506l154 725h506l-32 -151h-335l-27 -126h314l-32 -151h-314l-31 -146h335z" />
    <glyph glyph-name="E" unicode="&#x114;" horiz-adv-x="616" 
d="M511 0h-506l154 725h506l-32 -151h-335l-27 -126h314l-32 -151h-314l-31 -146h335z" />
    <glyph glyph-name="E" unicode="&#x112;" horiz-adv-x="616" 
d="M511 0h-506l154 725h506l-32 -151h-335l-27 -126h314l-32 -151h-314l-31 -146h335z" />
    <glyph glyph-name="E" unicode="&#xcb;" horiz-adv-x="616" 
d="M511 0h-506l154 725h506l-32 -151h-335l-27 -126h314l-32 -151h-314l-31 -146h335z" />
    <glyph glyph-name="E" unicode="&#xca;" horiz-adv-x="616" 
d="M511 0h-506l154 725h506l-32 -151h-335l-27 -126h314l-32 -151h-314l-31 -146h335z" />
    <glyph glyph-name="E" unicode="&#xc9;" horiz-adv-x="616" 
d="M511 0h-506l154 725h506l-32 -151h-335l-27 -126h314l-32 -151h-314l-31 -146h335z" />
    <glyph glyph-name="E" unicode="&#xc8;" horiz-adv-x="616" 
d="M511 0h-506l154 725h506l-32 -151h-335l-27 -126h314l-32 -151h-314l-31 -146h335z" />
    <glyph glyph-name="F" unicode="F" horiz-adv-x="579" 
d="M176 0h-171l154 725h484l-32 -151h-313l-27 -126h291l-32 -151h-291z" />
    <glyph glyph-name="G" unicode="G" horiz-adv-x="744" 
d="M47 316q0 127 62.5 223t165.5 147t221 51q130 0 216 -35l-34 -158q-44 22 -85.5 34.5t-103.5 12.5q-71 0 -131 -34t-95 -95t-35 -140q0 -92 53 -141t148 -49q34 0 67 9l30 141h-157l30 140h327l-85 -402q-99 -33 -234 -33q-104 0 -186 41t-128 116t-46 172z" />
    <glyph glyph-name="G" unicode="&#x122;" horiz-adv-x="744" 
d="M47 316q0 127 62.5 223t165.5 147t221 51q130 0 216 -35l-34 -158q-44 22 -85.5 34.5t-103.5 12.5q-71 0 -131 -34t-95 -95t-35 -140q0 -92 53 -141t148 -49q34 0 67 9l30 141h-157l30 140h327l-85 -402q-99 -33 -234 -33q-104 0 -186 41t-128 116t-46 172z" />
    <glyph glyph-name="G" unicode="&#x120;" horiz-adv-x="744" 
d="M47 316q0 127 62.5 223t165.5 147t221 51q130 0 216 -35l-34 -158q-44 22 -85.5 34.5t-103.5 12.5q-71 0 -131 -34t-95 -95t-35 -140q0 -92 53 -141t148 -49q34 0 67 9l30 141h-157l30 140h327l-85 -402q-99 -33 -234 -33q-104 0 -186 41t-128 116t-46 172z" />
    <glyph glyph-name="G" unicode="&#x11e;" horiz-adv-x="744" 
d="M47 316q0 127 62.5 223t165.5 147t221 51q130 0 216 -35l-34 -158q-44 22 -85.5 34.5t-103.5 12.5q-71 0 -131 -34t-95 -95t-35 -140q0 -92 53 -141t148 -49q34 0 67 9l30 141h-157l30 140h327l-85 -402q-99 -33 -234 -33q-104 0 -186 41t-128 116t-46 172z" />
    <glyph glyph-name="G" unicode="&#x11c;" horiz-adv-x="744" 
d="M47 316q0 127 62.5 223t165.5 147t221 51q130 0 216 -35l-34 -158q-44 22 -85.5 34.5t-103.5 12.5q-71 0 -131 -34t-95 -95t-35 -140q0 -92 53 -141t148 -49q34 0 67 9l30 141h-157l30 140h327l-85 -402q-99 -33 -234 -33q-104 0 -186 41t-128 116t-46 172z" />
    <glyph glyph-name="H" unicode="H" horiz-adv-x="750" 
d="M549 448l59 277h171l-154 -725h-171l63 297h-278l-63 -297h-171l154 725h171l-59 -277h278z" />
    <glyph glyph-name="H" unicode="&#x126;" horiz-adv-x="750" 
d="M549 448l59 277h171l-154 -725h-171l63 297h-278l-63 -297h-171l154 725h171l-59 -277h278z" />
    <glyph glyph-name="H" unicode="&#x124;" horiz-adv-x="750" 
d="M549 448l59 277h171l-154 -725h-171l63 297h-278l-63 -297h-171l154 725h171l-59 -277h278z" />
    <glyph glyph-name="I" unicode="I" horiz-adv-x="509" 
d="M440 151l-32 -151h-427l32 151h128l90 423h-128l32 151h427l-32 -151h-128l-90 -423h128z" />
    <glyph glyph-name="I" unicode="&#x1eca;" horiz-adv-x="509" 
d="M440 151l-32 -151h-427l32 151h128l90 423h-128l32 151h427l-32 -151h-128l-90 -423h128z" />
    <glyph glyph-name="I" unicode="&#x130;" horiz-adv-x="509" 
d="M440 151l-32 -151h-427l32 151h128l90 423h-128l32 151h427l-32 -151h-128l-90 -423h128z" />
    <glyph glyph-name="I" unicode="&#x12e;" horiz-adv-x="509" 
d="M440 151l-32 -151h-427l32 151h128l90 423h-128l32 151h427l-32 -151h-128l-90 -423h128z" />
    <glyph glyph-name="I" unicode="&#x12c;" horiz-adv-x="509" 
d="M440 151l-32 -151h-427l32 151h128l90 423h-128l32 151h427l-32 -151h-128l-90 -423h128z" />
    <glyph glyph-name="I" unicode="&#x12a;" horiz-adv-x="509" 
d="M440 151l-32 -151h-427l32 151h128l90 423h-128l32 151h427l-32 -151h-128l-90 -423h128z" />
    <glyph glyph-name="I" unicode="&#x128;" horiz-adv-x="509" 
d="M440 151l-32 -151h-427l32 151h128l90 423h-128l32 151h427l-32 -151h-128l-90 -423h128z" />
    <glyph glyph-name="I" unicode="&#xcf;" horiz-adv-x="509" 
d="M440 151l-32 -151h-427l32 151h128l90 423h-128l32 151h427l-32 -151h-128l-90 -423h128z" />
    <glyph glyph-name="I" unicode="&#xce;" horiz-adv-x="509" 
d="M440 151l-32 -151h-427l32 151h128l90 423h-128l32 151h427l-32 -151h-128l-90 -423h128z" />
    <glyph glyph-name="I" unicode="&#xcd;" horiz-adv-x="509" 
d="M440 151l-32 -151h-427l32 151h128l90 423h-128l32 151h427l-32 -151h-128l-90 -423h128z" />
    <glyph glyph-name="I" unicode="&#xcc;" horiz-adv-x="509" 
d="M440 151l-32 -151h-427l32 151h128l90 423h-128l32 151h427l-32 -151h-128l-90 -423h128z" />
    <glyph glyph-name="J" unicode="J" horiz-adv-x="430" 
d="M-31 5l45 148q45 -19 87 -19q33 0 50.5 14.5t25.5 39.5t20 82l64 304h-141l32 151h312l-105 -493q-25 -120 -86.5 -182.5t-172.5 -62.5q-63 0 -131 18z" />
    <glyph glyph-name="J" unicode="&#x134;" horiz-adv-x="430" 
d="M-31 5l45 148q45 -19 87 -19q33 0 50.5 14.5t25.5 39.5t20 82l64 304h-141l32 151h312l-105 -493q-25 -120 -86.5 -182.5t-172.5 -62.5q-63 0 -131 18z" />
    <glyph glyph-name="K" unicode="K" horiz-adv-x="694" 
d="M159 725h171l-66 -309l308 309h216l-369 -362l238 -363h-203l-210 324l-68 -324h-171z" />
    <glyph glyph-name="K" unicode="&#x136;" horiz-adv-x="694" 
d="M159 725h171l-66 -309l308 309h216l-369 -362l238 -363h-203l-210 324l-68 -324h-171z" />
    <glyph glyph-name="L" unicode="L" horiz-adv-x="555" 
d="M159 725h171l-122 -574h298l-32 -151h-469z" />
    <glyph glyph-name="L" unicode="&#x141;" horiz-adv-x="555" 
d="M159 725h171l-122 -574h298l-32 -151h-469z" />
    <glyph glyph-name="L" unicode="&#x13f;" horiz-adv-x="555" 
d="M159 725h171l-122 -574h298l-32 -151h-469z" />
    <glyph glyph-name="L" unicode="&#x13d;" horiz-adv-x="555" 
d="M159 725h171l-122 -574h298l-32 -151h-469z" />
    <glyph glyph-name="L" unicode="&#x13b;" horiz-adv-x="555" 
d="M159 725h171l-122 -574h298l-32 -151h-469z" />
    <glyph glyph-name="L" unicode="&#x139;" horiz-adv-x="555" 
d="M159 725h171l-122 -574h298l-32 -151h-469z" />
    <glyph glyph-name="M" unicode="M" horiz-adv-x="898" 
d="M730 581l-217 -381h-161l-58 380l-123 -580h-166l154 725h256l51 -340l194 340h267l-154 -725h-166z" />
    <glyph glyph-name="N" unicode="N" horiz-adv-x="782" 
d="M811 725l-154 -725h-210l-169 512l-109 -512h-164l154 725h206l170 -513l109 513h167z" />
    <glyph glyph-name="N" unicode="&#x14a;" horiz-adv-x="782" 
d="M811 725l-154 -725h-210l-169 512l-109 -512h-164l154 725h206l170 -513l109 513h167z" />
    <glyph glyph-name="N" unicode="&#x147;" horiz-adv-x="782" 
d="M811 725l-154 -725h-210l-169 512l-109 -512h-164l154 725h206l170 -513l109 513h167z" />
    <glyph glyph-name="N" unicode="&#x145;" horiz-adv-x="782" 
d="M811 725l-154 -725h-210l-169 512l-109 -512h-164l154 725h206l170 -513l109 513h167z" />
    <glyph glyph-name="N" unicode="&#x143;" horiz-adv-x="782" 
d="M811 725l-154 -725h-210l-169 512l-109 -512h-164l154 725h206l170 -513l109 513h167z" />
    <glyph glyph-name="N" unicode="&#xd1;" horiz-adv-x="782" 
d="M811 725l-154 -725h-210l-169 512l-109 -512h-164l154 725h206l170 -513l109 513h167z" />
    <glyph glyph-name="O" unicode="O" horiz-adv-x="790" 
d="M362 -13q-91 0 -163 35t-113 103.5t-41 165.5q0 120 50 222t144.5 163t222.5 61q91 0 163 -35t113 -103.5t41 -165.5q0 -120 -50 -222t-144.5 -163t-222.5 -61zM378 128q70 0 119.5 42t75 107.5t25.5 133.5q0 85 -40.5 135t-111.5 50q-70 0 -119.5 -42t-75 -107.5
t-25.5 -133.5q0 -85 40.5 -135t111.5 -50z" />
    <glyph glyph-name="O" unicode="&#x1ecc;" horiz-adv-x="790" 
d="M362 -13q-91 0 -163 35t-113 103.5t-41 165.5q0 120 50 222t144.5 163t222.5 61q91 0 163 -35t113 -103.5t41 -165.5q0 -120 -50 -222t-144.5 -163t-222.5 -61zM378 128q70 0 119.5 42t75 107.5t25.5 133.5q0 85 -40.5 135t-111.5 50q-70 0 -119.5 -42t-75 -107.5
t-25.5 -133.5q0 -85 40.5 -135t111.5 -50z" />
    <glyph glyph-name="O" unicode="&#x152;" horiz-adv-x="790" 
d="M362 -13q-91 0 -163 35t-113 103.5t-41 165.5q0 120 50 222t144.5 163t222.5 61q91 0 163 -35t113 -103.5t41 -165.5q0 -120 -50 -222t-144.5 -163t-222.5 -61zM378 128q70 0 119.5 42t75 107.5t25.5 133.5q0 85 -40.5 135t-111.5 50q-70 0 -119.5 -42t-75 -107.5
t-25.5 -133.5q0 -85 40.5 -135t111.5 -50z" />
    <glyph glyph-name="O" unicode="&#x150;" horiz-adv-x="790" 
d="M362 -13q-91 0 -163 35t-113 103.5t-41 165.5q0 120 50 222t144.5 163t222.5 61q91 0 163 -35t113 -103.5t41 -165.5q0 -120 -50 -222t-144.5 -163t-222.5 -61zM378 128q70 0 119.5 42t75 107.5t25.5 133.5q0 85 -40.5 135t-111.5 50q-70 0 -119.5 -42t-75 -107.5
t-25.5 -133.5q0 -85 40.5 -135t111.5 -50z" />
    <glyph glyph-name="O" unicode="&#x14e;" horiz-adv-x="790" 
d="M362 -13q-91 0 -163 35t-113 103.5t-41 165.5q0 120 50 222t144.5 163t222.5 61q91 0 163 -35t113 -103.5t41 -165.5q0 -120 -50 -222t-144.5 -163t-222.5 -61zM378 128q70 0 119.5 42t75 107.5t25.5 133.5q0 85 -40.5 135t-111.5 50q-70 0 -119.5 -42t-75 -107.5
t-25.5 -133.5q0 -85 40.5 -135t111.5 -50z" />
    <glyph glyph-name="O" unicode="&#x14c;" horiz-adv-x="790" 
d="M362 -13q-91 0 -163 35t-113 103.5t-41 165.5q0 120 50 222t144.5 163t222.5 61q91 0 163 -35t113 -103.5t41 -165.5q0 -120 -50 -222t-144.5 -163t-222.5 -61zM378 128q70 0 119.5 42t75 107.5t25.5 133.5q0 85 -40.5 135t-111.5 50q-70 0 -119.5 -42t-75 -107.5
t-25.5 -133.5q0 -85 40.5 -135t111.5 -50z" />
    <glyph glyph-name="O" unicode="&#xd8;" horiz-adv-x="790" 
d="M362 -13q-91 0 -163 35t-113 103.5t-41 165.5q0 120 50 222t144.5 163t222.5 61q91 0 163 -35t113 -103.5t41 -165.5q0 -120 -50 -222t-144.5 -163t-222.5 -61zM378 128q70 0 119.5 42t75 107.5t25.5 133.5q0 85 -40.5 135t-111.5 50q-70 0 -119.5 -42t-75 -107.5
t-25.5 -133.5q0 -85 40.5 -135t111.5 -50z" />
    <glyph glyph-name="O" unicode="&#xd6;" horiz-adv-x="790" 
d="M362 -13q-91 0 -163 35t-113 103.5t-41 165.5q0 120 50 222t144.5 163t222.5 61q91 0 163 -35t113 -103.5t41 -165.5q0 -120 -50 -222t-144.5 -163t-222.5 -61zM378 128q70 0 119.5 42t75 107.5t25.5 133.5q0 85 -40.5 135t-111.5 50q-70 0 -119.5 -42t-75 -107.5
t-25.5 -133.5q0 -85 40.5 -135t111.5 -50z" />
    <glyph glyph-name="O" unicode="&#xd5;" horiz-adv-x="790" 
d="M362 -13q-91 0 -163 35t-113 103.5t-41 165.5q0 120 50 222t144.5 163t222.5 61q91 0 163 -35t113 -103.5t41 -165.5q0 -120 -50 -222t-144.5 -163t-222.5 -61zM378 128q70 0 119.5 42t75 107.5t25.5 133.5q0 85 -40.5 135t-111.5 50q-70 0 -119.5 -42t-75 -107.5
t-25.5 -133.5q0 -85 40.5 -135t111.5 -50z" />
    <glyph glyph-name="O" unicode="&#xd4;" horiz-adv-x="790" 
d="M362 -13q-91 0 -163 35t-113 103.5t-41 165.5q0 120 50 222t144.5 163t222.5 61q91 0 163 -35t113 -103.5t41 -165.5q0 -120 -50 -222t-144.5 -163t-222.5 -61zM378 128q70 0 119.5 42t75 107.5t25.5 133.5q0 85 -40.5 135t-111.5 50q-70 0 -119.5 -42t-75 -107.5
t-25.5 -133.5q0 -85 40.5 -135t111.5 -50z" />
    <glyph glyph-name="O" unicode="&#xd3;" horiz-adv-x="790" 
d="M362 -13q-91 0 -163 35t-113 103.5t-41 165.5q0 120 50 222t144.5 163t222.5 61q91 0 163 -35t113 -103.5t41 -165.5q0 -120 -50 -222t-144.5 -163t-222.5 -61zM378 128q70 0 119.5 42t75 107.5t25.5 133.5q0 85 -40.5 135t-111.5 50q-70 0 -119.5 -42t-75 -107.5
t-25.5 -133.5q0 -85 40.5 -135t111.5 -50z" />
    <glyph glyph-name="O" unicode="&#xd2;" horiz-adv-x="790" 
d="M362 -13q-91 0 -163 35t-113 103.5t-41 165.5q0 120 50 222t144.5 163t222.5 61q91 0 163 -35t113 -103.5t41 -165.5q0 -120 -50 -222t-144.5 -163t-222.5 -61zM378 128q70 0 119.5 42t75 107.5t25.5 133.5q0 85 -40.5 135t-111.5 50q-70 0 -119.5 -42t-75 -107.5
t-25.5 -133.5q0 -85 40.5 -135t111.5 -50z" />
    <glyph glyph-name="P" unicode="P" horiz-adv-x="656" 
d="M398 725q135 0 210.5 -45t75.5 -154q0 -138 -101.5 -206.5t-285.5 -68.5h-68l-53 -251h-171l154 725h239zM299 581l-39 -186h73q166 0 166 97q0 42 -32.5 65.5t-94.5 23.5h-73z" />
    <glyph glyph-name="P" unicode="&#xde;" horiz-adv-x="656" 
d="M398 725q135 0 210.5 -45t75.5 -154q0 -138 -101.5 -206.5t-285.5 -68.5h-68l-53 -251h-171l154 725h239zM299 581l-39 -186h73q166 0 166 97q0 42 -32.5 65.5t-94.5 23.5h-73z" />
    <glyph glyph-name="Q" unicode="Q" horiz-adv-x="793" 
d="M629 81l72 -106l-102 -70l-76 112q-76 -30 -161 -30q-91 0 -163 35t-113 103.5t-41 165.5q0 120 50 222t144.5 163t222.5 61q91 0 163 -35t113 -103.5t41 -165.5q0 -105 -39 -197.5t-111 -154.5zM440 138l-78 114l102 70l74 -108q29 40 44.5 92.5t15.5 104.5
q0 85 -40.5 135t-111.5 50q-70 0 -119.5 -42t-75 -107.5t-25.5 -133.5q0 -85 40.5 -135t111.5 -50q30 0 62 10z" />
    <glyph glyph-name="R" unicode="R" horiz-adv-x="672" 
d="M436 0l-136 283h-64l-60 -283h-171l154 725h239q128 0 200 -43.5t72 -145.5q0 -87 -50.5 -149.5t-146.5 -85.5l148 -301h-185zM299 581l-32 -154h73q79 0 112 20t33 60q0 42 -29.5 58t-83.5 16h-73z" />
    <glyph glyph-name="R" unicode="&#x158;" horiz-adv-x="672" 
d="M436 0l-136 283h-64l-60 -283h-171l154 725h239q128 0 200 -43.5t72 -145.5q0 -87 -50.5 -149.5t-146.5 -85.5l148 -301h-185zM299 581l-32 -154h73q79 0 112 20t33 60q0 42 -29.5 58t-83.5 16h-73z" />
    <glyph glyph-name="R" unicode="&#x156;" horiz-adv-x="672" 
d="M436 0l-136 283h-64l-60 -283h-171l154 725h239q128 0 200 -43.5t72 -145.5q0 -87 -50.5 -149.5t-146.5 -85.5l148 -301h-185zM299 581l-32 -154h73q79 0 112 20t33 60q0 42 -29.5 58t-83.5 16h-73z" />
    <glyph glyph-name="R" unicode="&#x154;" horiz-adv-x="672" 
d="M436 0l-136 283h-64l-60 -283h-171l154 725h239q128 0 200 -43.5t72 -145.5q0 -87 -50.5 -149.5t-146.5 -85.5l148 -301h-185zM299 581l-32 -154h73q79 0 112 20t33 60q0 42 -29.5 58t-83.5 16h-73z" />
    <glyph glyph-name="S" unicode="S" horiz-adv-x="604" 
d="M5 51l36 169q45 -38 106 -62.5t123 -24.5q122 0 122 72q0 26 -24.5 49.5t-81.5 47.5l-42 18q-77 34 -116.5 82t-39.5 118q0 67 38.5 116t106.5 75t154 26q131 0 220 -51l-34 -158q-44 30 -101.5 46.5t-111.5 16.5q-53 0 -81 -14t-28 -42q0 -25 25 -44t82 -45l41 -19
q169 -75 169 -198q0 -72 -41 -127t-111 -85t-154 -30q-141 0 -257 64z" />
    <glyph glyph-name="S" unicode="&#x218;" horiz-adv-x="604" 
d="M5 51l36 169q45 -38 106 -62.5t123 -24.5q122 0 122 72q0 26 -24.5 49.5t-81.5 47.5l-42 18q-77 34 -116.5 82t-39.5 118q0 67 38.5 116t106.5 75t154 26q131 0 220 -51l-34 -158q-44 30 -101.5 46.5t-111.5 16.5q-53 0 -81 -14t-28 -42q0 -25 25 -44t82 -45l41 -19
q169 -75 169 -198q0 -72 -41 -127t-111 -85t-154 -30q-141 0 -257 64z" />
    <glyph glyph-name="S" unicode="&#x160;" horiz-adv-x="604" 
d="M5 51l36 169q45 -38 106 -62.5t123 -24.5q122 0 122 72q0 26 -24.5 49.5t-81.5 47.5l-42 18q-77 34 -116.5 82t-39.5 118q0 67 38.5 116t106.5 75t154 26q131 0 220 -51l-34 -158q-44 30 -101.5 46.5t-111.5 16.5q-53 0 -81 -14t-28 -42q0 -25 25 -44t82 -45l41 -19
q169 -75 169 -198q0 -72 -41 -127t-111 -85t-154 -30q-141 0 -257 64z" />
    <glyph glyph-name="S" unicode="&#x15e;" horiz-adv-x="604" 
d="M5 51l36 169q45 -38 106 -62.5t123 -24.5q122 0 122 72q0 26 -24.5 49.5t-81.5 47.5l-42 18q-77 34 -116.5 82t-39.5 118q0 67 38.5 116t106.5 75t154 26q131 0 220 -51l-34 -158q-44 30 -101.5 46.5t-111.5 16.5q-53 0 -81 -14t-28 -42q0 -25 25 -44t82 -45l41 -19
q169 -75 169 -198q0 -72 -41 -127t-111 -85t-154 -30q-141 0 -257 64z" />
    <glyph glyph-name="S" unicode="&#x15c;" horiz-adv-x="604" 
d="M5 51l36 169q45 -38 106 -62.5t123 -24.5q122 0 122 72q0 26 -24.5 49.5t-81.5 47.5l-42 18q-77 34 -116.5 82t-39.5 118q0 67 38.5 116t106.5 75t154 26q131 0 220 -51l-34 -158q-44 30 -101.5 46.5t-111.5 16.5q-53 0 -81 -14t-28 -42q0 -25 25 -44t82 -45l41 -19
q169 -75 169 -198q0 -72 -41 -127t-111 -85t-154 -30q-141 0 -257 64z" />
    <glyph glyph-name="S" unicode="&#x15a;" horiz-adv-x="604" 
d="M5 51l36 169q45 -38 106 -62.5t123 -24.5q122 0 122 72q0 26 -24.5 49.5t-81.5 47.5l-42 18q-77 34 -116.5 82t-39.5 118q0 67 38.5 116t106.5 75t154 26q131 0 220 -51l-34 -158q-44 30 -101.5 46.5t-111.5 16.5q-53 0 -81 -14t-28 -42q0 -25 25 -44t82 -45l41 -19
q169 -75 169 -198q0 -72 -41 -127t-111 -85t-154 -30q-141 0 -257 64z" />
    <glyph glyph-name="T" unicode="T" horiz-adv-x="639" 
d="M345 0h-172l122 574h-212l32 151h597l-32 -151h-213z" />
    <glyph glyph-name="T" unicode="&#x21a;" horiz-adv-x="639" 
d="M345 0h-172l122 574h-212l32 151h597l-32 -151h-213z" />
    <glyph glyph-name="T" unicode="&#x166;" horiz-adv-x="639" 
d="M345 0h-172l122 574h-212l32 151h597l-32 -151h-213z" />
    <glyph glyph-name="T" unicode="&#x164;" horiz-adv-x="639" 
d="M345 0h-172l122 574h-212l32 151h597l-32 -151h-213z" />
    <glyph glyph-name="T" unicode="&#x162;" horiz-adv-x="639" 
d="M345 0h-172l122 574h-212l32 151h597l-32 -151h-213z" />
    <glyph glyph-name="U" unicode="U" horiz-adv-x="743" 
d="M343 127q57 0 91.5 20.5t52.5 57.5t31 97l90 423h171l-87 -409q-25 -119 -68 -190.5t-115 -105t-185 -33.5q-134 0 -203.5 50.5t-69.5 164.5q0 50 13 108l88 415h171l-92 -433q-9 -39 -9 -70q0 -48 28 -71.5t93 -23.5z" />
    <glyph glyph-name="U" unicode="&#x1ee4;" horiz-adv-x="743" 
d="M343 127q57 0 91.5 20.5t52.5 57.5t31 97l90 423h171l-87 -409q-25 -119 -68 -190.5t-115 -105t-185 -33.5q-134 0 -203.5 50.5t-69.5 164.5q0 50 13 108l88 415h171l-92 -433q-9 -39 -9 -70q0 -48 28 -71.5t93 -23.5z" />
    <glyph glyph-name="U" unicode="&#x172;" horiz-adv-x="743" 
d="M343 127q57 0 91.5 20.5t52.5 57.5t31 97l90 423h171l-87 -409q-25 -119 -68 -190.5t-115 -105t-185 -33.5q-134 0 -203.5 50.5t-69.5 164.5q0 50 13 108l88 415h171l-92 -433q-9 -39 -9 -70q0 -48 28 -71.5t93 -23.5z" />
    <glyph glyph-name="U" unicode="&#x170;" horiz-adv-x="743" 
d="M343 127q57 0 91.5 20.5t52.5 57.5t31 97l90 423h171l-87 -409q-25 -119 -68 -190.5t-115 -105t-185 -33.5q-134 0 -203.5 50.5t-69.5 164.5q0 50 13 108l88 415h171l-92 -433q-9 -39 -9 -70q0 -48 28 -71.5t93 -23.5z" />
    <glyph glyph-name="U" unicode="&#x16e;" horiz-adv-x="743" 
d="M343 127q57 0 91.5 20.5t52.5 57.5t31 97l90 423h171l-87 -409q-25 -119 -68 -190.5t-115 -105t-185 -33.5q-134 0 -203.5 50.5t-69.5 164.5q0 50 13 108l88 415h171l-92 -433q-9 -39 -9 -70q0 -48 28 -71.5t93 -23.5z" />
    <glyph glyph-name="U" unicode="&#x16c;" horiz-adv-x="743" 
d="M343 127q57 0 91.5 20.5t52.5 57.5t31 97l90 423h171l-87 -409q-25 -119 -68 -190.5t-115 -105t-185 -33.5q-134 0 -203.5 50.5t-69.5 164.5q0 50 13 108l88 415h171l-92 -433q-9 -39 -9 -70q0 -48 28 -71.5t93 -23.5z" />
    <glyph glyph-name="U" unicode="&#x16a;" horiz-adv-x="743" 
d="M343 127q57 0 91.5 20.5t52.5 57.5t31 97l90 423h171l-87 -409q-25 -119 -68 -190.5t-115 -105t-185 -33.5q-134 0 -203.5 50.5t-69.5 164.5q0 50 13 108l88 415h171l-92 -433q-9 -39 -9 -70q0 -48 28 -71.5t93 -23.5z" />
    <glyph glyph-name="U" unicode="&#x168;" horiz-adv-x="743" 
d="M343 127q57 0 91.5 20.5t52.5 57.5t31 97l90 423h171l-87 -409q-25 -119 -68 -190.5t-115 -105t-185 -33.5q-134 0 -203.5 50.5t-69.5 164.5q0 50 13 108l88 415h171l-92 -433q-9 -39 -9 -70q0 -48 28 -71.5t93 -23.5z" />
    <glyph glyph-name="U" unicode="&#xdc;" horiz-adv-x="743" 
d="M343 127q57 0 91.5 20.5t52.5 57.5t31 97l90 423h171l-87 -409q-25 -119 -68 -190.5t-115 -105t-185 -33.5q-134 0 -203.5 50.5t-69.5 164.5q0 50 13 108l88 415h171l-92 -433q-9 -39 -9 -70q0 -48 28 -71.5t93 -23.5z" />
    <glyph glyph-name="U" unicode="&#xdb;" horiz-adv-x="743" 
d="M343 127q57 0 91.5 20.5t52.5 57.5t31 97l90 423h171l-87 -409q-25 -119 -68 -190.5t-115 -105t-185 -33.5q-134 0 -203.5 50.5t-69.5 164.5q0 50 13 108l88 415h171l-92 -433q-9 -39 -9 -70q0 -48 28 -71.5t93 -23.5z" />
    <glyph glyph-name="U" unicode="&#xda;" horiz-adv-x="743" 
d="M343 127q57 0 91.5 20.5t52.5 57.5t31 97l90 423h171l-87 -409q-25 -119 -68 -190.5t-115 -105t-185 -33.5q-134 0 -203.5 50.5t-69.5 164.5q0 50 13 108l88 415h171l-92 -433q-9 -39 -9 -70q0 -48 28 -71.5t93 -23.5z" />
    <glyph glyph-name="U" unicode="&#xd9;" horiz-adv-x="743" 
d="M343 127q57 0 91.5 20.5t52.5 57.5t31 97l90 423h171l-87 -409q-25 -119 -68 -190.5t-115 -105t-185 -33.5q-134 0 -203.5 50.5t-69.5 164.5q0 50 13 108l88 415h171l-92 -433q-9 -39 -9 -70q0 -48 28 -71.5t93 -23.5z" />
    <glyph glyph-name="V" unicode="V" horiz-adv-x="676" 
d="M86 725h179l53 -533l268 533h190l-404 -725h-187z" />
    <glyph glyph-name="W" unicode="W" horiz-adv-x="932" 
d="M466 725h176l3 -503l186 503h180l-290 -725h-206v522l-220 -522h-194v725h178l-16 -501z" />
    <glyph glyph-name="W" unicode="&#x1e84;" horiz-adv-x="932" 
d="M466 725h176l3 -503l186 503h180l-290 -725h-206v522l-220 -522h-194v725h178l-16 -501z" />
    <glyph glyph-name="W" unicode="&#x1e82;" horiz-adv-x="932" 
d="M466 725h176l3 -503l186 503h180l-290 -725h-206v522l-220 -522h-194v725h178l-16 -501z" />
    <glyph glyph-name="W" unicode="&#x1e80;" horiz-adv-x="932" 
d="M466 725h176l3 -503l186 503h180l-290 -725h-206v522l-220 -522h-194v725h178l-16 -501z" />
    <glyph glyph-name="W" unicode="&#x174;" horiz-adv-x="932" 
d="M466 725h176l3 -503l186 503h180l-290 -725h-206v522l-220 -522h-194v725h178l-16 -501z" />
    <glyph glyph-name="X" unicode="X" horiz-adv-x="698" 
d="M130 0h-200l341 375l-177 350h189l110 -217l197 217h202l-327 -359l186 -366h-189l-119 233z" />
    <glyph glyph-name="Y" unicode="Y" horiz-adv-x="694" 
d="M259 271l-180 454h176l118 -300l232 300h198l-374 -456l-57 -269h-171z" />
    <glyph glyph-name="Y" unicode="&#x1ef2;" horiz-adv-x="694" 
d="M259 271l-180 454h176l118 -300l232 300h198l-374 -456l-57 -269h-171z" />
    <glyph glyph-name="Y" unicode="&#x232;" horiz-adv-x="694" 
d="M259 271l-180 454h176l118 -300l232 300h198l-374 -456l-57 -269h-171z" />
    <glyph glyph-name="Y" unicode="&#x178;" horiz-adv-x="694" 
d="M259 271l-180 454h176l118 -300l232 300h198l-374 -456l-57 -269h-171z" />
    <glyph glyph-name="Y" unicode="&#x176;" horiz-adv-x="694" 
d="M259 271l-180 454h176l118 -300l232 300h198l-374 -456l-57 -269h-171z" />
    <glyph glyph-name="Y" unicode="&#xdd;" horiz-adv-x="694" 
d="M259 271l-180 454h176l118 -300l232 300h198l-374 -456l-57 -269h-171z" />
    <glyph glyph-name="Z" unicode="Z" horiz-adv-x="659" 
d="M144 725h572l-28 -131l-467 -443h380l-32 -151h-604l28 131l467 444h-348z" />
    <glyph glyph-name="Z" unicode="&#x17d;" horiz-adv-x="659" 
d="M144 725h572l-28 -131l-467 -443h380l-32 -151h-604l28 131l467 444h-348z" />
    <glyph glyph-name="Z" unicode="&#x17b;" horiz-adv-x="659" 
d="M144 725h572l-28 -131l-467 -443h380l-32 -151h-604l28 131l467 444h-348z" />
    <glyph glyph-name="Z" unicode="&#x179;" horiz-adv-x="659" 
d="M144 725h572l-28 -131l-467 -443h380l-32 -151h-604l28 131l467 444h-348z" />
    <glyph glyph-name="a" unicode="a" horiz-adv-x="578" 
d="M387 349v12q0 60 -119 60q-45 0 -84 -10t-83 -31l29 135q84 39 190 39q111 0 166.5 -46t55.5 -132q0 -30 -6.5 -70t-24.5 -110q-13 -51 -23 -105.5t-13 -90.5h-154l11 75q-30 -43 -73 -65.5t-95 -22.5q-50 0 -88.5 19.5t-59 53t-20.5 74.5q0 102 97 150.5t294 64.5z
M367 231l7 24q-205 -7 -205 -100q0 -26 15 -41t46 -15q99 0 137 132z" />
    <glyph glyph-name="a" unicode="&#x105;" horiz-adv-x="578" 
d="M387 349v12q0 60 -119 60q-45 0 -84 -10t-83 -31l29 135q84 39 190 39q111 0 166.5 -46t55.5 -132q0 -30 -6.5 -70t-24.5 -110q-13 -51 -23 -105.5t-13 -90.5h-154l11 75q-30 -43 -73 -65.5t-95 -22.5q-50 0 -88.5 19.5t-59 53t-20.5 74.5q0 102 97 150.5t294 64.5z
M367 231l7 24q-205 -7 -205 -100q0 -26 15 -41t46 -15q99 0 137 132z" />
    <glyph glyph-name="a" unicode="&#x103;" horiz-adv-x="578" 
d="M387 349v12q0 60 -119 60q-45 0 -84 -10t-83 -31l29 135q84 39 190 39q111 0 166.5 -46t55.5 -132q0 -30 -6.5 -70t-24.5 -110q-13 -51 -23 -105.5t-13 -90.5h-154l11 75q-30 -43 -73 -65.5t-95 -22.5q-50 0 -88.5 19.5t-59 53t-20.5 74.5q0 102 97 150.5t294 64.5z
M367 231l7 24q-205 -7 -205 -100q0 -26 15 -41t46 -15q99 0 137 132z" />
    <glyph glyph-name="a" unicode="&#x101;" horiz-adv-x="578" 
d="M387 349v12q0 60 -119 60q-45 0 -84 -10t-83 -31l29 135q84 39 190 39q111 0 166.5 -46t55.5 -132q0 -30 -6.5 -70t-24.5 -110q-13 -51 -23 -105.5t-13 -90.5h-154l11 75q-30 -43 -73 -65.5t-95 -22.5q-50 0 -88.5 19.5t-59 53t-20.5 74.5q0 102 97 150.5t294 64.5z
M367 231l7 24q-205 -7 -205 -100q0 -26 15 -41t46 -15q99 0 137 132z" />
    <glyph glyph-name="a" unicode="&#xe6;" horiz-adv-x="578" 
d="M387 349v12q0 60 -119 60q-45 0 -84 -10t-83 -31l29 135q84 39 190 39q111 0 166.5 -46t55.5 -132q0 -30 -6.5 -70t-24.5 -110q-13 -51 -23 -105.5t-13 -90.5h-154l11 75q-30 -43 -73 -65.5t-95 -22.5q-50 0 -88.5 19.5t-59 53t-20.5 74.5q0 102 97 150.5t294 64.5z
M367 231l7 24q-205 -7 -205 -100q0 -26 15 -41t46 -15q99 0 137 132z" />
    <glyph glyph-name="a" unicode="&#xe5;" horiz-adv-x="578" 
d="M387 349v12q0 60 -119 60q-45 0 -84 -10t-83 -31l29 135q84 39 190 39q111 0 166.5 -46t55.5 -132q0 -30 -6.5 -70t-24.5 -110q-13 -51 -23 -105.5t-13 -90.5h-154l11 75q-30 -43 -73 -65.5t-95 -22.5q-50 0 -88.5 19.5t-59 53t-20.5 74.5q0 102 97 150.5t294 64.5z
M367 231l7 24q-205 -7 -205 -100q0 -26 15 -41t46 -15q99 0 137 132z" />
    <glyph glyph-name="a" unicode="&#xe4;" horiz-adv-x="578" 
d="M387 349v12q0 60 -119 60q-45 0 -84 -10t-83 -31l29 135q84 39 190 39q111 0 166.5 -46t55.5 -132q0 -30 -6.5 -70t-24.5 -110q-13 -51 -23 -105.5t-13 -90.5h-154l11 75q-30 -43 -73 -65.5t-95 -22.5q-50 0 -88.5 19.5t-59 53t-20.5 74.5q0 102 97 150.5t294 64.5z
M367 231l7 24q-205 -7 -205 -100q0 -26 15 -41t46 -15q99 0 137 132z" />
    <glyph glyph-name="a" unicode="&#xe3;" horiz-adv-x="578" 
d="M387 349v12q0 60 -119 60q-45 0 -84 -10t-83 -31l29 135q84 39 190 39q111 0 166.5 -46t55.5 -132q0 -30 -6.5 -70t-24.5 -110q-13 -51 -23 -105.5t-13 -90.5h-154l11 75q-30 -43 -73 -65.5t-95 -22.5q-50 0 -88.5 19.5t-59 53t-20.5 74.5q0 102 97 150.5t294 64.5z
M367 231l7 24q-205 -7 -205 -100q0 -26 15 -41t46 -15q99 0 137 132z" />
    <glyph glyph-name="a" unicode="&#xe2;" horiz-adv-x="578" 
d="M387 349v12q0 60 -119 60q-45 0 -84 -10t-83 -31l29 135q84 39 190 39q111 0 166.5 -46t55.5 -132q0 -30 -6.5 -70t-24.5 -110q-13 -51 -23 -105.5t-13 -90.5h-154l11 75q-30 -43 -73 -65.5t-95 -22.5q-50 0 -88.5 19.5t-59 53t-20.5 74.5q0 102 97 150.5t294 64.5z
M367 231l7 24q-205 -7 -205 -100q0 -26 15 -41t46 -15q99 0 137 132z" />
    <glyph glyph-name="a" unicode="&#xe1;" horiz-adv-x="578" 
d="M387 349v12q0 60 -119 60q-45 0 -84 -10t-83 -31l29 135q84 39 190 39q111 0 166.5 -46t55.5 -132q0 -30 -6.5 -70t-24.5 -110q-13 -51 -23 -105.5t-13 -90.5h-154l11 75q-30 -43 -73 -65.5t-95 -22.5q-50 0 -88.5 19.5t-59 53t-20.5 74.5q0 102 97 150.5t294 64.5z
M367 231l7 24q-205 -7 -205 -100q0 -26 15 -41t46 -15q99 0 137 132z" />
    <glyph glyph-name="a" unicode="&#xe0;" horiz-adv-x="578" 
d="M387 349v12q0 60 -119 60q-45 0 -84 -10t-83 -31l29 135q84 39 190 39q111 0 166.5 -46t55.5 -132q0 -30 -6.5 -70t-24.5 -110q-13 -51 -23 -105.5t-13 -90.5h-154l11 75q-30 -43 -73 -65.5t-95 -22.5q-50 0 -88.5 19.5t-59 53t-20.5 74.5q0 102 97 150.5t294 64.5z
M367 231l7 24q-205 -7 -205 -100q0 -26 15 -41t46 -15q99 0 137 132z" />
    <glyph glyph-name="b" unicode="b" horiz-adv-x="643" 
d="M265 473q31 40 73 58.5t84 18.5q58 0 102.5 -27.5t69 -77.5t24.5 -115q0 -86 -33 -165t-97 -128.5t-152 -49.5q-58 0 -96 26.5t-57 66.5l-17 -80h-167l160 755h165zM305 115q72 0 107 56.5t35 132.5q0 53 -24 85.5t-69 32.5q-49 0 -82 -31.5t-48.5 -77t-15.5 -86.5
q0 -48 25.5 -80t71.5 -32z" />
    <glyph glyph-name="c" unicode="c" horiz-adv-x="493" 
d="M327 122q44 0 99 15l-30 -137q-67 -13 -109 -13q-120 0 -191 62.5t-71 175.5q0 102 45 176.5t122 113.5t172 39q77 0 150 -24l-30 -137q-34 13 -62.5 19.5t-61.5 6.5q-47 0 -85 -21t-59.5 -59.5t-21.5 -89.5q0 -61 34 -94t99 -33z" />
    <glyph glyph-name="c" unicode="&#x10d;" horiz-adv-x="493" 
d="M327 122q44 0 99 15l-30 -137q-67 -13 -109 -13q-120 0 -191 62.5t-71 175.5q0 102 45 176.5t122 113.5t172 39q77 0 150 -24l-30 -137q-34 13 -62.5 19.5t-61.5 6.5q-47 0 -85 -21t-59.5 -59.5t-21.5 -89.5q0 -61 34 -94t99 -33z" />
    <glyph glyph-name="c" unicode="&#x10b;" horiz-adv-x="493" 
d="M327 122q44 0 99 15l-30 -137q-67 -13 -109 -13q-120 0 -191 62.5t-71 175.5q0 102 45 176.5t122 113.5t172 39q77 0 150 -24l-30 -137q-34 13 -62.5 19.5t-61.5 6.5q-47 0 -85 -21t-59.5 -59.5t-21.5 -89.5q0 -61 34 -94t99 -33z" />
    <glyph glyph-name="c" unicode="&#x109;" horiz-adv-x="493" 
d="M327 122q44 0 99 15l-30 -137q-67 -13 -109 -13q-120 0 -191 62.5t-71 175.5q0 102 45 176.5t122 113.5t172 39q77 0 150 -24l-30 -137q-34 13 -62.5 19.5t-61.5 6.5q-47 0 -85 -21t-59.5 -59.5t-21.5 -89.5q0 -61 34 -94t99 -33z" />
    <glyph glyph-name="c" unicode="&#x107;" horiz-adv-x="493" 
d="M327 122q44 0 99 15l-30 -137q-67 -13 -109 -13q-120 0 -191 62.5t-71 175.5q0 102 45 176.5t122 113.5t172 39q77 0 150 -24l-30 -137q-34 13 -62.5 19.5t-61.5 6.5q-47 0 -85 -21t-59.5 -59.5t-21.5 -89.5q0 -61 34 -94t99 -33z" />
    <glyph glyph-name="c" unicode="&#xe7;" horiz-adv-x="493" 
d="M327 122q44 0 99 15l-30 -137q-67 -13 -109 -13q-120 0 -191 62.5t-71 175.5q0 102 45 176.5t122 113.5t172 39q77 0 150 -24l-30 -137q-34 13 -62.5 19.5t-61.5 6.5q-47 0 -85 -21t-59.5 -59.5t-21.5 -89.5q0 -61 34 -94t99 -33z" />
    <glyph glyph-name="d" unicode="d" horiz-adv-x="641" 
d="M374 62q-31 -40 -72 -57.5t-83 -17.5q-58 0 -102.5 27.5t-69 77.5t-24.5 115q0 86 33 165t97 128.5t152 49.5q58 0 96 -26.5t57 -66.5l63 298h165l-160 -755h-165zM336 422q-72 0 -107 -56.5t-35 -132.5q0 -53 24 -85.5t69 -32.5q49 0 82 31.5t48.5 77t15.5 86.5
q0 48 -25.5 80t-71.5 32z" />
    <glyph glyph-name="d" unicode="&#x111;" horiz-adv-x="641" 
d="M374 62q-31 -40 -72 -57.5t-83 -17.5q-58 0 -102.5 27.5t-69 77.5t-24.5 115q0 86 33 165t97 128.5t152 49.5q58 0 96 -26.5t57 -66.5l63 298h165l-160 -755h-165zM336 422q-72 0 -107 -56.5t-35 -132.5q0 -53 24 -85.5t69 -32.5q49 0 82 31.5t48.5 77t15.5 86.5
q0 48 -25.5 80t-71.5 32z" />
    <glyph glyph-name="d" unicode="&#x10f;" horiz-adv-x="641" 
d="M374 62q-31 -40 -72 -57.5t-83 -17.5q-58 0 -102.5 27.5t-69 77.5t-24.5 115q0 86 33 165t97 128.5t152 49.5q58 0 96 -26.5t57 -66.5l63 298h165l-160 -755h-165zM336 422q-72 0 -107 -56.5t-35 -132.5q0 -53 24 -85.5t69 -32.5q49 0 82 31.5t48.5 77t15.5 86.5
q0 48 -25.5 80t-71.5 32z" />
    <glyph glyph-name="d" unicode="&#xf0;" horiz-adv-x="641" 
d="M374 62q-31 -40 -72 -57.5t-83 -17.5q-58 0 -102.5 27.5t-69 77.5t-24.5 115q0 86 33 165t97 128.5t152 49.5q58 0 96 -26.5t57 -66.5l63 298h165l-160 -755h-165zM336 422q-72 0 -107 -56.5t-35 -132.5q0 -53 24 -85.5t69 -32.5q49 0 82 31.5t48.5 77t15.5 86.5
q0 48 -25.5 80t-71.5 32z" />
    <glyph glyph-name="e" unicode="e" horiz-adv-x="598" 
d="M576 313q0 -44 -10 -85h-378q8 -54 44 -80t107 -26q89 0 166 29l-30 -138q-27 -12 -73.5 -19t-85.5 -7q-136 0 -213 64.5t-77 185.5q0 88 39.5 160.5t112.5 114.5t169 42q74 0 125.5 -32.5t77.5 -87t26 -121.5zM195 327h230q1 51 -25 77t-72 26q-43 0 -80.5 -25.5
t-52.5 -77.5z" />
    <glyph glyph-name="e" unicode="&#x11b;" horiz-adv-x="598" 
d="M576 313q0 -44 -10 -85h-378q8 -54 44 -80t107 -26q89 0 166 29l-30 -138q-27 -12 -73.5 -19t-85.5 -7q-136 0 -213 64.5t-77 185.5q0 88 39.5 160.5t112.5 114.5t169 42q74 0 125.5 -32.5t77.5 -87t26 -121.5zM195 327h230q1 51 -25 77t-72 26q-43 0 -80.5 -25.5
t-52.5 -77.5z" />
    <glyph glyph-name="e" unicode="&#x119;" horiz-adv-x="598" 
d="M576 313q0 -44 -10 -85h-378q8 -54 44 -80t107 -26q89 0 166 29l-30 -138q-27 -12 -73.5 -19t-85.5 -7q-136 0 -213 64.5t-77 185.5q0 88 39.5 160.5t112.5 114.5t169 42q74 0 125.5 -32.5t77.5 -87t26 -121.5zM195 327h230q1 51 -25 77t-72 26q-43 0 -80.5 -25.5
t-52.5 -77.5z" />
    <glyph glyph-name="e" unicode="&#x117;" horiz-adv-x="598" 
d="M576 313q0 -44 -10 -85h-378q8 -54 44 -80t107 -26q89 0 166 29l-30 -138q-27 -12 -73.5 -19t-85.5 -7q-136 0 -213 64.5t-77 185.5q0 88 39.5 160.5t112.5 114.5t169 42q74 0 125.5 -32.5t77.5 -87t26 -121.5zM195 327h230q1 51 -25 77t-72 26q-43 0 -80.5 -25.5
t-52.5 -77.5z" />
    <glyph glyph-name="e" unicode="&#x115;" horiz-adv-x="598" 
d="M576 313q0 -44 -10 -85h-378q8 -54 44 -80t107 -26q89 0 166 29l-30 -138q-27 -12 -73.5 -19t-85.5 -7q-136 0 -213 64.5t-77 185.5q0 88 39.5 160.5t112.5 114.5t169 42q74 0 125.5 -32.5t77.5 -87t26 -121.5zM195 327h230q1 51 -25 77t-72 26q-43 0 -80.5 -25.5
t-52.5 -77.5z" />
    <glyph glyph-name="e" unicode="&#x113;" horiz-adv-x="598" 
d="M576 313q0 -44 -10 -85h-378q8 -54 44 -80t107 -26q89 0 166 29l-30 -138q-27 -12 -73.5 -19t-85.5 -7q-136 0 -213 64.5t-77 185.5q0 88 39.5 160.5t112.5 114.5t169 42q74 0 125.5 -32.5t77.5 -87t26 -121.5zM195 327h230q1 51 -25 77t-72 26q-43 0 -80.5 -25.5
t-52.5 -77.5z" />
    <glyph glyph-name="e" unicode="&#xeb;" horiz-adv-x="598" 
d="M576 313q0 -44 -10 -85h-378q8 -54 44 -80t107 -26q89 0 166 29l-30 -138q-27 -12 -73.5 -19t-85.5 -7q-136 0 -213 64.5t-77 185.5q0 88 39.5 160.5t112.5 114.5t169 42q74 0 125.5 -32.5t77.5 -87t26 -121.5zM195 327h230q1 51 -25 77t-72 26q-43 0 -80.5 -25.5
t-52.5 -77.5z" />
    <glyph glyph-name="e" unicode="&#xea;" horiz-adv-x="598" 
d="M576 313q0 -44 -10 -85h-378q8 -54 44 -80t107 -26q89 0 166 29l-30 -138q-27 -12 -73.5 -19t-85.5 -7q-136 0 -213 64.5t-77 185.5q0 88 39.5 160.5t112.5 114.5t169 42q74 0 125.5 -32.5t77.5 -87t26 -121.5zM195 327h230q1 51 -25 77t-72 26q-43 0 -80.5 -25.5
t-52.5 -77.5z" />
    <glyph glyph-name="e" unicode="&#xe9;" horiz-adv-x="598" 
d="M576 313q0 -44 -10 -85h-378q8 -54 44 -80t107 -26q89 0 166 29l-30 -138q-27 -12 -73.5 -19t-85.5 -7q-136 0 -213 64.5t-77 185.5q0 88 39.5 160.5t112.5 114.5t169 42q74 0 125.5 -32.5t77.5 -87t26 -121.5zM195 327h230q1 51 -25 77t-72 26q-43 0 -80.5 -25.5
t-52.5 -77.5z" />
    <glyph glyph-name="e" unicode="&#xe8;" horiz-adv-x="598" 
d="M576 313q0 -44 -10 -85h-378q8 -54 44 -80t107 -26q89 0 166 29l-30 -138q-27 -12 -73.5 -19t-85.5 -7q-136 0 -213 64.5t-77 185.5q0 88 39.5 160.5t112.5 114.5t169 42q74 0 125.5 -32.5t77.5 -87t26 -121.5zM195 327h230q1 51 -25 77t-72 26q-43 0 -80.5 -25.5
t-52.5 -77.5z" />
    <glyph glyph-name="f" unicode="f" horiz-adv-x="383" 
d="M160 591q20 97 76.5 135t154.5 38q20 0 47 -3t45 -7l-25 -118q-10 3 -27.5 4.5t-29.5 1.5q-35 0 -53 -15t-27 -54l-7 -35h119l-25 -117h-119l-89 -421h-165l89 421h-73l25 117h73z" />
    <glyph glyph-name="g" unicode="g" horiz-adv-x="638" 
d="M379 89q-31 -37 -73.5 -53.5t-84.5 -16.5q-57 0 -101 27t-68.5 74.5t-24.5 108.5q0 80 33 154t96 120.5t150 46.5q57 0 94.5 -24.5t56.5 -62.5l16 75h165l-99 -466q-30 -141 -118 -209.5t-224 -68.5q-62 0 -122 10.5t-99 27.5l31 150q38 -29 86 -42t99 -13q68 0 117.5 33
t61.5 92zM335 422q-71 0 -104 -48t-33 -119q0 -49 24 -78.5t68 -29.5q49 0 80.5 27t46 67t14.5 78q0 45 -25 74t-71 29z" />
    <glyph glyph-name="g" unicode="&#x123;" horiz-adv-x="638" 
d="M379 89q-31 -37 -73.5 -53.5t-84.5 -16.5q-57 0 -101 27t-68.5 74.5t-24.5 108.5q0 80 33 154t96 120.5t150 46.5q57 0 94.5 -24.5t56.5 -62.5l16 75h165l-99 -466q-30 -141 -118 -209.5t-224 -68.5q-62 0 -122 10.5t-99 27.5l31 150q38 -29 86 -42t99 -13q68 0 117.5 33
t61.5 92zM335 422q-71 0 -104 -48t-33 -119q0 -49 24 -78.5t68 -29.5q49 0 80.5 27t46 67t14.5 78q0 45 -25 74t-71 29z" />
    <glyph glyph-name="g" unicode="&#x121;" horiz-adv-x="638" 
d="M379 89q-31 -37 -73.5 -53.5t-84.5 -16.5q-57 0 -101 27t-68.5 74.5t-24.5 108.5q0 80 33 154t96 120.5t150 46.5q57 0 94.5 -24.5t56.5 -62.5l16 75h165l-99 -466q-30 -141 -118 -209.5t-224 -68.5q-62 0 -122 10.5t-99 27.5l31 150q38 -29 86 -42t99 -13q68 0 117.5 33
t61.5 92zM335 422q-71 0 -104 -48t-33 -119q0 -49 24 -78.5t68 -29.5q49 0 80.5 27t46 67t14.5 78q0 45 -25 74t-71 29z" />
    <glyph glyph-name="g" unicode="&#x11f;" horiz-adv-x="638" 
d="M379 89q-31 -37 -73.5 -53.5t-84.5 -16.5q-57 0 -101 27t-68.5 74.5t-24.5 108.5q0 80 33 154t96 120.5t150 46.5q57 0 94.5 -24.5t56.5 -62.5l16 75h165l-99 -466q-30 -141 -118 -209.5t-224 -68.5q-62 0 -122 10.5t-99 27.5l31 150q38 -29 86 -42t99 -13q68 0 117.5 33
t61.5 92zM335 422q-71 0 -104 -48t-33 -119q0 -49 24 -78.5t68 -29.5q49 0 80.5 27t46 67t14.5 78q0 45 -25 74t-71 29z" />
    <glyph glyph-name="g" unicode="&#x11d;" horiz-adv-x="638" 
d="M379 89q-31 -37 -73.5 -53.5t-84.5 -16.5q-57 0 -101 27t-68.5 74.5t-24.5 108.5q0 80 33 154t96 120.5t150 46.5q57 0 94.5 -24.5t56.5 -62.5l16 75h165l-99 -466q-30 -141 -118 -209.5t-224 -68.5q-62 0 -122 10.5t-99 27.5l31 150q38 -29 86 -42t99 -13q68 0 117.5 33
t61.5 92zM335 422q-71 0 -104 -48t-33 -119q0 -49 24 -78.5t68 -29.5q49 0 80.5 27t46 67t14.5 78q0 45 -25 74t-71 29z" />
    <glyph glyph-name="h" unicode="h" 
d="M263 466q31 39 73.5 61.5t104.5 22.5q75 0 115 -39t40 -118q0 -39 -11 -91l-64 -302h-165l60 280q9 39 9 67q0 75 -68 75q-50 0 -84 -35.5t-49 -106.5l-60 -280h-165l160 755h165z" />
    <glyph glyph-name="h" unicode="&#x127;" 
d="M263 466q31 39 73.5 61.5t104.5 22.5q75 0 115 -39t40 -118q0 -39 -11 -91l-64 -302h-165l60 280q9 39 9 67q0 75 -68 75q-50 0 -84 -35.5t-49 -106.5l-60 -280h-165l160 755h165z" />
    <glyph glyph-name="h" unicode="&#x125;" 
d="M263 466q31 39 73.5 61.5t104.5 22.5q75 0 115 -39t40 -118q0 -39 -11 -91l-64 -302h-165l60 280q9 39 9 67q0 75 -68 75q-50 0 -84 -35.5t-49 -106.5l-60 -280h-165l160 755h165z" />
    <glyph glyph-name="i" unicode="i" horiz-adv-x="279" 
d="M132 623l28 132h165l-28 -132h-165zM-2 0l115 538h166l-115 -538h-166z" />
    <glyph glyph-name="i" unicode="&#x1ecb;" horiz-adv-x="279" 
d="M132 623l28 132h165l-28 -132h-165zM-2 0l115 538h166l-115 -538h-166z" />
    <glyph glyph-name="i" unicode="&#x131;" horiz-adv-x="279" 
d="M132 623l28 132h165l-28 -132h-165zM-2 0l115 538h166l-115 -538h-166z" />
    <glyph glyph-name="i" unicode="&#x12f;" horiz-adv-x="279" 
d="M132 623l28 132h165l-28 -132h-165zM-2 0l115 538h166l-115 -538h-166z" />
    <glyph glyph-name="i" unicode="&#x12d;" horiz-adv-x="279" 
d="M132 623l28 132h165l-28 -132h-165zM-2 0l115 538h166l-115 -538h-166z" />
    <glyph glyph-name="i" unicode="&#x12b;" horiz-adv-x="279" 
d="M132 623l28 132h165l-28 -132h-165zM-2 0l115 538h166l-115 -538h-166z" />
    <glyph glyph-name="i" unicode="&#x129;" horiz-adv-x="279" 
d="M132 623l28 132h165l-28 -132h-165zM-2 0l115 538h166l-115 -538h-166z" />
    <glyph glyph-name="i" unicode="&#xef;" horiz-adv-x="279" 
d="M132 623l28 132h165l-28 -132h-165zM-2 0l115 538h166l-115 -538h-166z" />
    <glyph glyph-name="i" unicode="&#xee;" horiz-adv-x="279" 
d="M132 623l28 132h165l-28 -132h-165zM-2 0l115 538h166l-115 -538h-166z" />
    <glyph glyph-name="i" unicode="&#xed;" horiz-adv-x="279" 
d="M132 623l28 132h165l-28 -132h-165zM-2 0l115 538h166l-115 -538h-166z" />
    <glyph glyph-name="i" unicode="&#xec;" horiz-adv-x="279" 
d="M132 623l28 132h165l-28 -132h-165zM-2 0l115 538h166l-115 -538h-166z" />
    <glyph glyph-name="j" unicode="j" horiz-adv-x="321" 
d="M173 623l28 132h165l-28 -132h-165zM-94 -192l25 117q33 -12 53 -12q22 0 33.5 12.5t16.5 39.5l96 456h-79l25 117h244l-122 -577q-35 -167 -192 -167q-44 0 -100 14z" />
    <glyph glyph-name="j" unicode="&#x237;" horiz-adv-x="321" 
d="M173 623l28 132h165l-28 -132h-165zM-94 -192l25 117q33 -12 53 -12q22 0 33.5 12.5t16.5 39.5l96 456h-79l25 117h244l-122 -577q-35 -167 -192 -167q-44 0 -100 14z" />
    <glyph glyph-name="j" unicode="&#x135;" horiz-adv-x="321" 
d="M173 623l28 132h165l-28 -132h-165zM-94 -192l25 117q33 -12 53 -12q22 0 33.5 12.5t16.5 39.5l96 456h-79l25 117h244l-122 -577q-35 -167 -192 -167q-44 0 -100 14z" />
    <glyph glyph-name="k" unicode="k" horiz-adv-x="581" 
d="M-1 0l160 755h165l-91 -428l203 211h205l-264 -271l166 -267h-192l-138 232l-49 -232h-165z" />
    <glyph glyph-name="k" unicode="&#x137;" horiz-adv-x="581" 
d="M-1 0l160 755h165l-91 -428l203 211h205l-264 -271l166 -267h-192l-138 232l-49 -232h-165z" />
    <glyph glyph-name="l" unicode="l" horiz-adv-x="279" 
d="M159 755h165l-160 -755h-165z" />
    <glyph glyph-name="l" unicode="&#x142;" horiz-adv-x="279" 
d="M159 755h165l-160 -755h-165z" />
    <glyph glyph-name="l" unicode="&#x140;" horiz-adv-x="279" 
d="M159 755h165l-160 -755h-165z" />
    <glyph glyph-name="l" unicode="&#x13e;" horiz-adv-x="279" 
d="M159 755h165l-160 -755h-165z" />
    <glyph glyph-name="l" unicode="&#x13c;" horiz-adv-x="279" 
d="M159 755h165l-160 -755h-165z" />
    <glyph glyph-name="l" unicode="&#x13a;" horiz-adv-x="279" 
d="M159 755h165l-160 -755h-165z" />
    <glyph glyph-name="m" unicode="m" horiz-adv-x="966" 
d="M579 458q34 44 85.5 68t116.5 24q151 0 151 -154q0 -39 -11 -94l-64 -302h-165l60 280q9 41 9 69q0 37 -16 55t-49 18q-49 0 -79.5 -34.5t-46.5 -107.5l-60 -280h-165l60 280q9 41 9 70q0 72 -64 72q-49 0 -80 -35t-46 -107l-60 -280h-165l114 538h160l-14 -69
q33 38 74 59.5t102 21.5q56 0 93.5 -23t50.5 -69z" />
    <glyph glyph-name="n" unicode="n" 
d="M113 538h162l-15 -72q69 84 181 84q75 0 115 -39t40 -118q0 -38 -11 -91l-64 -302h-165l60 280q9 39 9 68q0 38 -16.5 56t-50.5 18q-50 0 -84.5 -35.5t-49.5 -106.5l-60 -280h-165z" />
    <glyph glyph-name="n" unicode="&#x14b;" 
d="M113 538h162l-15 -72q69 84 181 84q75 0 115 -39t40 -118q0 -38 -11 -91l-64 -302h-165l60 280q9 39 9 68q0 38 -16.5 56t-50.5 18q-50 0 -84.5 -35.5t-49.5 -106.5l-60 -280h-165z" />
    <glyph glyph-name="n" unicode="&#x148;" 
d="M113 538h162l-15 -72q69 84 181 84q75 0 115 -39t40 -118q0 -38 -11 -91l-64 -302h-165l60 280q9 39 9 68q0 38 -16.5 56t-50.5 18q-50 0 -84.5 -35.5t-49.5 -106.5l-60 -280h-165z" />
    <glyph glyph-name="n" unicode="&#x146;" 
d="M113 538h162l-15 -72q69 84 181 84q75 0 115 -39t40 -118q0 -38 -11 -91l-64 -302h-165l60 280q9 39 9 68q0 38 -16.5 56t-50.5 18q-50 0 -84.5 -35.5t-49.5 -106.5l-60 -280h-165z" />
    <glyph glyph-name="n" unicode="&#x144;" 
d="M113 538h162l-15 -72q69 84 181 84q75 0 115 -39t40 -118q0 -38 -11 -91l-64 -302h-165l60 280q9 39 9 68q0 38 -16.5 56t-50.5 18q-50 0 -84.5 -35.5t-49.5 -106.5l-60 -280h-165z" />
    <glyph glyph-name="n" unicode="&#xf1;" 
d="M113 538h162l-15 -72q69 84 181 84q75 0 115 -39t40 -118q0 -38 -11 -91l-64 -302h-165l60 280q9 39 9 68q0 38 -16.5 56t-50.5 18q-50 0 -84.5 -35.5t-49.5 -106.5l-60 -280h-165z" />
    <glyph glyph-name="o" unicode="o" horiz-adv-x="618" 
d="M23 220q0 76 33.5 153t105 129t179.5 52q113 0 183 -59.5t70 -173.5q0 -76 -33.5 -153t-105 -129t-178.5 -52q-113 0 -183.5 59.5t-70.5 173.5zM424 313q0 56 -24 84.5t-71 28.5q-64 0 -100 -58t-36 -140q0 -56 24 -84.5t71 -28.5q64 0 100 58t36 140z" />
    <glyph glyph-name="o" unicode="&#x1ecd;" horiz-adv-x="618" 
d="M23 220q0 76 33.5 153t105 129t179.5 52q113 0 183 -59.5t70 -173.5q0 -76 -33.5 -153t-105 -129t-178.5 -52q-113 0 -183.5 59.5t-70.5 173.5zM424 313q0 56 -24 84.5t-71 28.5q-64 0 -100 -58t-36 -140q0 -56 24 -84.5t71 -28.5q64 0 100 58t36 140z" />
    <glyph glyph-name="o" unicode="&#x153;" horiz-adv-x="618" 
d="M23 220q0 76 33.5 153t105 129t179.5 52q113 0 183 -59.5t70 -173.5q0 -76 -33.5 -153t-105 -129t-178.5 -52q-113 0 -183.5 59.5t-70.5 173.5zM424 313q0 56 -24 84.5t-71 28.5q-64 0 -100 -58t-36 -140q0 -56 24 -84.5t71 -28.5q64 0 100 58t36 140z" />
    <glyph glyph-name="o" unicode="&#x151;" horiz-adv-x="618" 
d="M23 220q0 76 33.5 153t105 129t179.5 52q113 0 183 -59.5t70 -173.5q0 -76 -33.5 -153t-105 -129t-178.5 -52q-113 0 -183.5 59.5t-70.5 173.5zM424 313q0 56 -24 84.5t-71 28.5q-64 0 -100 -58t-36 -140q0 -56 24 -84.5t71 -28.5q64 0 100 58t36 140z" />
    <glyph glyph-name="o" unicode="&#x14f;" horiz-adv-x="618" 
d="M23 220q0 76 33.5 153t105 129t179.5 52q113 0 183 -59.5t70 -173.5q0 -76 -33.5 -153t-105 -129t-178.5 -52q-113 0 -183.5 59.5t-70.5 173.5zM424 313q0 56 -24 84.5t-71 28.5q-64 0 -100 -58t-36 -140q0 -56 24 -84.5t71 -28.5q64 0 100 58t36 140z" />
    <glyph glyph-name="o" unicode="&#x14d;" horiz-adv-x="618" 
d="M23 220q0 76 33.5 153t105 129t179.5 52q113 0 183 -59.5t70 -173.5q0 -76 -33.5 -153t-105 -129t-178.5 -52q-113 0 -183.5 59.5t-70.5 173.5zM424 313q0 56 -24 84.5t-71 28.5q-64 0 -100 -58t-36 -140q0 -56 24 -84.5t71 -28.5q64 0 100 58t36 140z" />
    <glyph glyph-name="o" unicode="&#xf8;" horiz-adv-x="618" 
d="M23 220q0 76 33.5 153t105 129t179.5 52q113 0 183 -59.5t70 -173.5q0 -76 -33.5 -153t-105 -129t-178.5 -52q-113 0 -183.5 59.5t-70.5 173.5zM424 313q0 56 -24 84.5t-71 28.5q-64 0 -100 -58t-36 -140q0 -56 24 -84.5t71 -28.5q64 0 100 58t36 140z" />
    <glyph glyph-name="o" unicode="&#xf6;" horiz-adv-x="618" 
d="M23 220q0 76 33.5 153t105 129t179.5 52q113 0 183 -59.5t70 -173.5q0 -76 -33.5 -153t-105 -129t-178.5 -52q-113 0 -183.5 59.5t-70.5 173.5zM424 313q0 56 -24 84.5t-71 28.5q-64 0 -100 -58t-36 -140q0 -56 24 -84.5t71 -28.5q64 0 100 58t36 140z" />
    <glyph glyph-name="o" unicode="&#xf5;" horiz-adv-x="618" 
d="M23 220q0 76 33.5 153t105 129t179.5 52q113 0 183 -59.5t70 -173.5q0 -76 -33.5 -153t-105 -129t-178.5 -52q-113 0 -183.5 59.5t-70.5 173.5zM424 313q0 56 -24 84.5t-71 28.5q-64 0 -100 -58t-36 -140q0 -56 24 -84.5t71 -28.5q64 0 100 58t36 140z" />
    <glyph glyph-name="o" unicode="&#xf4;" horiz-adv-x="618" 
d="M23 220q0 76 33.5 153t105 129t179.5 52q113 0 183 -59.5t70 -173.5q0 -76 -33.5 -153t-105 -129t-178.5 -52q-113 0 -183.5 59.5t-70.5 173.5zM424 313q0 56 -24 84.5t-71 28.5q-64 0 -100 -58t-36 -140q0 -56 24 -84.5t71 -28.5q64 0 100 58t36 140z" />
    <glyph glyph-name="o" unicode="&#xf3;" horiz-adv-x="618" 
d="M23 220q0 76 33.5 153t105 129t179.5 52q113 0 183 -59.5t70 -173.5q0 -76 -33.5 -153t-105 -129t-178.5 -52q-113 0 -183.5 59.5t-70.5 173.5zM424 313q0 56 -24 84.5t-71 28.5q-64 0 -100 -58t-36 -140q0 -56 24 -84.5t71 -28.5q64 0 100 58t36 140z" />
    <glyph glyph-name="o" unicode="&#xf2;" horiz-adv-x="618" 
d="M23 220q0 76 33.5 153t105 129t179.5 52q113 0 183 -59.5t70 -173.5q0 -76 -33.5 -153t-105 -129t-178.5 -52q-113 0 -183.5 59.5t-70.5 173.5zM424 313q0 56 -24 84.5t-71 28.5q-64 0 -100 -58t-36 -140q0 -56 24 -84.5t71 -28.5q64 0 100 58t36 140z" />
    <glyph glyph-name="p" unicode="p" horiz-adv-x="641" 
d="M264 473q31 40 72.5 58.5t83.5 18.5q58 0 102.5 -27.5t69 -77.5t24.5 -115q0 -86 -33 -165t-97 -128.5t-152 -49.5q-58 0 -96 26.5t-57 66.5l-58 -275h-165l155 733h164zM303 115q72 0 107 56.5t35 132.5q0 53 -24 85.5t-69 32.5q-49 0 -82 -31.5t-48.5 -77t-15.5 -86.5
q0 -48 25.5 -80t71.5 -32z" />
    <glyph glyph-name="p" unicode="&#xfe;" horiz-adv-x="641" 
d="M264 473q31 40 72.5 58.5t83.5 18.5q58 0 102.5 -27.5t69 -77.5t24.5 -115q0 -86 -33 -165t-97 -128.5t-152 -49.5q-58 0 -96 26.5t-57 66.5l-58 -275h-165l155 733h164zM303 115q72 0 107 56.5t35 132.5q0 53 -24 85.5t-69 32.5q-49 0 -82 -31.5t-48.5 -77t-15.5 -86.5
q0 -48 25.5 -80t71.5 -32z" />
    <glyph glyph-name="q" unicode="q" horiz-adv-x="640" 
d="M374 62q-31 -40 -72 -57.5t-83 -17.5q-58 0 -102.5 27.5t-69 77.5t-24.5 115q0 86 33 165t97 128.5t152 49.5q58 0 96 -26.5t57 -66.5l17 81h165l-155 -733h-165zM336 422q-72 0 -107 -56.5t-35 -132.5q0 -53 24 -85.5t69 -32.5q49 0 82 31.5t48.5 77t15.5 86.5
q0 48 -25.5 80t-71.5 32z" />
    <glyph glyph-name="r" unicode="r" horiz-adv-x="406" 
d="M415 378q-25 5 -57 5q-56 0 -89.5 -23.5t-45.5 -80.5l-59 -279h-165l114 538h160l-21 -99q31 47 77 75t104 28q9 0 17 -1z" />
    <glyph glyph-name="r" unicode="&#x159;" horiz-adv-x="406" 
d="M415 378q-25 5 -57 5q-56 0 -89.5 -23.5t-45.5 -80.5l-59 -279h-165l114 538h160l-21 -99q31 47 77 75t104 28q9 0 17 -1z" />
    <glyph glyph-name="r" unicode="&#x157;" horiz-adv-x="406" 
d="M415 378q-25 5 -57 5q-56 0 -89.5 -23.5t-45.5 -80.5l-59 -279h-165l114 538h160l-21 -99q31 47 77 75t104 28q9 0 17 -1z" />
    <glyph glyph-name="r" unicode="&#x155;" horiz-adv-x="406" 
d="M415 378q-25 5 -57 5q-56 0 -89.5 -23.5t-45.5 -80.5l-59 -279h-165l114 538h160l-21 -99q31 47 77 75t104 28q9 0 17 -1z" />
    <glyph glyph-name="s" unicode="s" horiz-adv-x="477" 
d="M13 168q47 -24 95.5 -36.5t88.5 -12.5q34 0 53.5 11t19.5 30q0 18 -14.5 30t-48.5 26l-23 9q-120 46 -120 153q0 51 28 90.5t82 62.5t130 23q86 0 166 -31l-30 -137q-83 36 -151 36q-36 0 -54.5 -9t-18.5 -25q0 -13 13.5 -24.5t48.5 -26.5l23 -10q70 -31 101.5 -65.5
t31.5 -84.5q0 -55 -30 -98t-86.5 -67.5t-132.5 -24.5q-109 0 -202 43z" />
    <glyph glyph-name="s" unicode="&#x219;" horiz-adv-x="477" 
d="M13 168q47 -24 95.5 -36.5t88.5 -12.5q34 0 53.5 11t19.5 30q0 18 -14.5 30t-48.5 26l-23 9q-120 46 -120 153q0 51 28 90.5t82 62.5t130 23q86 0 166 -31l-30 -137q-83 36 -151 36q-36 0 -54.5 -9t-18.5 -25q0 -13 13.5 -24.5t48.5 -26.5l23 -10q70 -31 101.5 -65.5
t31.5 -84.5q0 -55 -30 -98t-86.5 -67.5t-132.5 -24.5q-109 0 -202 43z" />
    <glyph glyph-name="s" unicode="&#x161;" horiz-adv-x="477" 
d="M13 168q47 -24 95.5 -36.5t88.5 -12.5q34 0 53.5 11t19.5 30q0 18 -14.5 30t-48.5 26l-23 9q-120 46 -120 153q0 51 28 90.5t82 62.5t130 23q86 0 166 -31l-30 -137q-83 36 -151 36q-36 0 -54.5 -9t-18.5 -25q0 -13 13.5 -24.5t48.5 -26.5l23 -10q70 -31 101.5 -65.5
t31.5 -84.5q0 -55 -30 -98t-86.5 -67.5t-132.5 -24.5q-109 0 -202 43z" />
    <glyph glyph-name="s" unicode="&#x15f;" horiz-adv-x="477" 
d="M13 168q47 -24 95.5 -36.5t88.5 -12.5q34 0 53.5 11t19.5 30q0 18 -14.5 30t-48.5 26l-23 9q-120 46 -120 153q0 51 28 90.5t82 62.5t130 23q86 0 166 -31l-30 -137q-83 36 -151 36q-36 0 -54.5 -9t-18.5 -25q0 -13 13.5 -24.5t48.5 -26.5l23 -10q70 -31 101.5 -65.5
t31.5 -84.5q0 -55 -30 -98t-86.5 -67.5t-132.5 -24.5q-109 0 -202 43z" />
    <glyph glyph-name="s" unicode="&#x15d;" horiz-adv-x="477" 
d="M13 168q47 -24 95.5 -36.5t88.5 -12.5q34 0 53.5 11t19.5 30q0 18 -14.5 30t-48.5 26l-23 9q-120 46 -120 153q0 51 28 90.5t82 62.5t130 23q86 0 166 -31l-30 -137q-83 36 -151 36q-36 0 -54.5 -9t-18.5 -25q0 -13 13.5 -24.5t48.5 -26.5l23 -10q70 -31 101.5 -65.5
t31.5 -84.5q0 -55 -30 -98t-86.5 -67.5t-132.5 -24.5q-109 0 -202 43z" />
    <glyph glyph-name="s" unicode="&#x15b;" horiz-adv-x="477" 
d="M13 168q47 -24 95.5 -36.5t88.5 -12.5q34 0 53.5 11t19.5 30q0 18 -14.5 30t-48.5 26l-23 9q-120 46 -120 153q0 51 28 90.5t82 62.5t130 23q86 0 166 -31l-30 -137q-83 36 -151 36q-36 0 -54.5 -9t-18.5 -25q0 -13 13.5 -24.5t48.5 -26.5l23 -10q70 -31 101.5 -65.5
t31.5 -84.5q0 -55 -30 -98t-86.5 -67.5t-132.5 -24.5q-109 0 -202 43z" />
    <glyph glyph-name="s" unicode="&#xdf;" horiz-adv-x="477" 
d="M13 168q47 -24 95.5 -36.5t88.5 -12.5q34 0 53.5 11t19.5 30q0 18 -14.5 30t-48.5 26l-23 9q-120 46 -120 153q0 51 28 90.5t82 62.5t130 23q86 0 166 -31l-30 -137q-83 36 -151 36q-36 0 -54.5 -9t-18.5 -25q0 -13 13.5 -24.5t48.5 -26.5l23 -10q70 -31 101.5 -65.5
t31.5 -84.5q0 -55 -30 -98t-86.5 -67.5t-132.5 -24.5q-109 0 -202 43z" />
    <glyph glyph-name="t" unicode="t" horiz-adv-x="436" 
d="M79 107q0 29 7 60l54 254h-105l25 117h105l31 147h165l-31 -147h138l-25 -117h-138l-46 -217q-5 -21 -5 -41q0 -28 13 -37t38 -9q39 0 78 15l-27 -127q-64 -18 -114 -18q-78 0 -120.5 27t-42.5 93z" />
    <glyph glyph-name="t" unicode="&#x21b;" horiz-adv-x="436" 
d="M79 107q0 29 7 60l54 254h-105l25 117h105l31 147h165l-31 -147h138l-25 -117h-138l-46 -217q-5 -21 -5 -41q0 -28 13 -37t38 -9q39 0 78 15l-27 -127q-64 -18 -114 -18q-78 0 -120.5 27t-42.5 93z" />
    <glyph glyph-name="t" unicode="&#x167;" horiz-adv-x="436" 
d="M79 107q0 29 7 60l54 254h-105l25 117h105l31 147h165l-31 -147h138l-25 -117h-138l-46 -217q-5 -21 -5 -41q0 -28 13 -37t38 -9q39 0 78 15l-27 -127q-64 -18 -114 -18q-78 0 -120.5 27t-42.5 93z" />
    <glyph glyph-name="t" unicode="&#x165;" horiz-adv-x="436" 
d="M79 107q0 29 7 60l54 254h-105l25 117h105l31 147h165l-31 -147h138l-25 -117h-138l-46 -217q-5 -21 -5 -41q0 -28 13 -37t38 -9q39 0 78 15l-27 -127q-64 -18 -114 -18q-78 0 -120.5 27t-42.5 93z" />
    <glyph glyph-name="t" unicode="&#x163;" horiz-adv-x="436" 
d="M79 107q0 29 7 60l54 254h-105l25 117h105l31 147h165l-31 -147h138l-25 -117h-138l-46 -217q-5 -21 -5 -41q0 -28 13 -37t38 -9q39 0 78 15l-27 -127q-64 -18 -114 -18q-78 0 -120.5 27t-42.5 93z" />
    <glyph glyph-name="u" unicode="u" horiz-adv-x="618" 
d="M357 69q-66 -82 -176 -82q-72 0 -110.5 39t-38.5 117q0 37 11 90l64 305h165l-60 -282q-9 -39 -9 -67q0 -74 65 -74q46 0 77.5 35.5t46.5 105.5l60 282h165l-114 -538h-161z" />
    <glyph glyph-name="u" unicode="&#x1ee5;" horiz-adv-x="618" 
d="M357 69q-66 -82 -176 -82q-72 0 -110.5 39t-38.5 117q0 37 11 90l64 305h165l-60 -282q-9 -39 -9 -67q0 -74 65 -74q46 0 77.5 35.5t46.5 105.5l60 282h165l-114 -538h-161z" />
    <glyph glyph-name="u" unicode="&#x173;" horiz-adv-x="618" 
d="M357 69q-66 -82 -176 -82q-72 0 -110.5 39t-38.5 117q0 37 11 90l64 305h165l-60 -282q-9 -39 -9 -67q0 -74 65 -74q46 0 77.5 35.5t46.5 105.5l60 282h165l-114 -538h-161z" />
    <glyph glyph-name="u" unicode="&#x171;" horiz-adv-x="618" 
d="M357 69q-66 -82 -176 -82q-72 0 -110.5 39t-38.5 117q0 37 11 90l64 305h165l-60 -282q-9 -39 -9 -67q0 -74 65 -74q46 0 77.5 35.5t46.5 105.5l60 282h165l-114 -538h-161z" />
    <glyph glyph-name="u" unicode="&#x16f;" horiz-adv-x="618" 
d="M357 69q-66 -82 -176 -82q-72 0 -110.5 39t-38.5 117q0 37 11 90l64 305h165l-60 -282q-9 -39 -9 -67q0 -74 65 -74q46 0 77.5 35.5t46.5 105.5l60 282h165l-114 -538h-161z" />
    <glyph glyph-name="u" unicode="&#x16d;" horiz-adv-x="618" 
d="M357 69q-66 -82 -176 -82q-72 0 -110.5 39t-38.5 117q0 37 11 90l64 305h165l-60 -282q-9 -39 -9 -67q0 -74 65 -74q46 0 77.5 35.5t46.5 105.5l60 282h165l-114 -538h-161z" />
    <glyph glyph-name="u" unicode="&#x16b;" horiz-adv-x="618" 
d="M357 69q-66 -82 -176 -82q-72 0 -110.5 39t-38.5 117q0 37 11 90l64 305h165l-60 -282q-9 -39 -9 -67q0 -74 65 -74q46 0 77.5 35.5t46.5 105.5l60 282h165l-114 -538h-161z" />
    <glyph glyph-name="u" unicode="&#x169;" horiz-adv-x="618" 
d="M357 69q-66 -82 -176 -82q-72 0 -110.5 39t-38.5 117q0 37 11 90l64 305h165l-60 -282q-9 -39 -9 -67q0 -74 65 -74q46 0 77.5 35.5t46.5 105.5l60 282h165l-114 -538h-161z" />
    <glyph glyph-name="u" unicode="&#xfc;" horiz-adv-x="618" 
d="M357 69q-66 -82 -176 -82q-72 0 -110.5 39t-38.5 117q0 37 11 90l64 305h165l-60 -282q-9 -39 -9 -67q0 -74 65 -74q46 0 77.5 35.5t46.5 105.5l60 282h165l-114 -538h-161z" />
    <glyph glyph-name="u" unicode="&#xfb;" horiz-adv-x="618" 
d="M357 69q-66 -82 -176 -82q-72 0 -110.5 39t-38.5 117q0 37 11 90l64 305h165l-60 -282q-9 -39 -9 -67q0 -74 65 -74q46 0 77.5 35.5t46.5 105.5l60 282h165l-114 -538h-161z" />
    <glyph glyph-name="u" unicode="&#xfa;" horiz-adv-x="618" 
d="M357 69q-66 -82 -176 -82q-72 0 -110.5 39t-38.5 117q0 37 11 90l64 305h165l-60 -282q-9 -39 -9 -67q0 -74 65 -74q46 0 77.5 35.5t46.5 105.5l60 282h165l-114 -538h-161z" />
    <glyph glyph-name="u" unicode="&#xf9;" horiz-adv-x="618" 
d="M357 69q-66 -82 -176 -82q-72 0 -110.5 39t-38.5 117q0 37 11 90l64 305h165l-60 -282q-9 -39 -9 -67q0 -74 65 -74q46 0 77.5 35.5t46.5 105.5l60 282h165l-114 -538h-161z" />
    <glyph glyph-name="v" unicode="v" horiz-adv-x="546" 
d="M51 538h164l37 -379l176 379h173l-287 -538h-191z" />
    <glyph glyph-name="w" unicode="w" horiz-adv-x="820" 
d="M234 538l-14 -354l149 354h190l-3 -353l139 353h174l-233 -538h-201v386l-163 -386h-208l3 538h167z" />
    <glyph glyph-name="w" unicode="&#x1e85;" horiz-adv-x="820" 
d="M234 538l-14 -354l149 354h190l-3 -353l139 353h174l-233 -538h-201v386l-163 -386h-208l3 538h167z" />
    <glyph glyph-name="w" unicode="&#x1e83;" horiz-adv-x="820" 
d="M234 538l-14 -354l149 354h190l-3 -353l139 353h174l-233 -538h-201v386l-163 -386h-208l3 538h167z" />
    <glyph glyph-name="w" unicode="&#x1e81;" horiz-adv-x="820" 
d="M234 538l-14 -354l149 354h190l-3 -353l139 353h174l-233 -538h-201v386l-163 -386h-208l3 538h167z" />
    <glyph glyph-name="w" unicode="&#x175;" horiz-adv-x="820" 
d="M234 538l-14 -354l149 354h190l-3 -353l139 353h174l-233 -538h-201v386l-163 -386h-208l3 538h167z" />
    <glyph glyph-name="x" unicode="x" horiz-adv-x="575" 
d="M446 538h186l-256 -269l151 -269h-169l-89 156l-148 -156h-186l265 279l-146 259h172l81 -146z" />
    <glyph glyph-name="y" unicode="y" horiz-adv-x="558" 
d="M623 538l-443 -733h-171l135 222l-95 511h168l57 -316l177 316h172z" />
    <glyph glyph-name="y" unicode="&#x1ef3;" horiz-adv-x="558" 
d="M623 538l-443 -733h-171l135 222l-95 511h168l57 -316l177 316h172z" />
    <glyph glyph-name="y" unicode="&#x233;" horiz-adv-x="558" 
d="M623 538l-443 -733h-171l135 222l-95 511h168l57 -316l177 316h172z" />
    <glyph glyph-name="y" unicode="&#x177;" horiz-adv-x="558" 
d="M623 538l-443 -733h-171l135 222l-95 511h168l57 -316l177 316h172z" />
    <glyph glyph-name="y" unicode="&#xff;" horiz-adv-x="558" 
d="M623 538l-443 -733h-171l135 222l-95 511h168l57 -316l177 316h172z" />
    <glyph glyph-name="y" unicode="&#xfd;" horiz-adv-x="558" 
d="M623 538l-443 -733h-171l135 222l-95 511h168l57 -316l177 316h172z" />
    <glyph glyph-name="z" unicode="z" horiz-adv-x="558" 
d="M474 0h-505l28 131l335 276h-261l28 131h475l-28 -131l-335 -276h291z" />
    <glyph glyph-name="z" unicode="&#x17e;" horiz-adv-x="558" 
d="M474 0h-505l28 131l335 276h-261l28 131h475l-28 -131l-335 -276h291z" />
    <glyph glyph-name="z" unicode="&#x17c;" horiz-adv-x="558" 
d="M474 0h-505l28 131l335 276h-261l28 131h475l-28 -131l-335 -276h291z" />
    <glyph glyph-name="z" unicode="&#x17a;" horiz-adv-x="558" 
d="M474 0h-505l28 131l335 276h-261l28 131h475l-28 -131l-335 -276h291z" />
    <glyph glyph-name="uni00A0" unicode="&#xa0;" horiz-adv-x="204" 
 />
    <glyph glyph-name="uni00AD" unicode="&#xad;" horiz-adv-x="449" 
d="M414 338l-31 -145h-353l31 145h353z" />
    <glyph glyph-name="paragraph" unicode="&#xb6;" horiz-adv-x="844" 
d="M315 725h403v-920h-138v781h-94v-781h-138v481h-33q-110 0 -175 58t-65 159q0 102 65 162t175 60z" />
    <glyph glyph-name="periodcentered" unicode="&#xb7;" horiz-adv-x="284" 
d="M252 358l-38 -178h-186l38 178h186z" />
    <glyph glyph-name="glyph65" horiz-adv-x="768" 
d="M34 288q0 62 18 132h528v3q0 79 -66 123.5t-174 44.5q-101 0 -197 -23l32 151q81 18 190 18q112 0 200.5 -40t138 -114.5t49.5 -173.5q0 -120 -53 -216.5t-146.5 -151t-210.5 -54.5q-95 0 -164.5 37t-107 105t-37.5 159zM571 298h-361q-5 -20 -5 -45q0 -61 40 -95.5
t109 -34.5q92 0 145 48t72 127z" />
    <glyph glyph-name="glyph66" 
d="M324 755l-15 -68h121l-22 -100h-120l-25 -121q31 38 73.5 60.5t104.5 22.5q75 0 115 -39t40 -118q0 -38 -11 -90l-64 -302h-165l60 280q9 39 9 67q0 75 -68 75q-50 0 -84 -35.5t-49 -106.5l-60 -280h-165l124 587h-76l22 100h75l15 68h165z" />
    <glyph glyph-name="glyph67" horiz-adv-x="598" 
d="M571 304q0 -88 -39.5 -160.5t-112.5 -114.5t-169 -42q-74 0 -125.5 32.5t-77.5 87t-26 121.5q0 44 10 85h378q-8 54 -44 80t-107 26q-89 0 -166 -29l30 138q27 12 73.5 19t85.5 7q136 0 213 -64.5t77 -185.5zM402 214h-230q-1 -51 25 -77t72 -26q43 0 80.5 25.5
t52.5 77.5z" />
    <glyph glyph-name="uni0410" unicode="&#x410;" horiz-adv-x="718" 
d="M667 0h-181l-22 176h-248l-97 -176h-187l427 725h188zM419 543l-126 -228h154z" />
    <glyph glyph-name="uni0411" unicode="&#x411;" horiz-adv-x="661" 
d="M347 454q137 0 209 -47t72 -158q0 -249 -362 -249h-261l154 725h509l-32 -150h-338l-26 -121h75zM245 328l-38 -184h80q79 0 117.5 22t38.5 74q0 43 -27.5 65.5t-90.5 22.5h-80z" />
    <glyph glyph-name="uni0412" unicode="&#x412;" horiz-adv-x="675" 
d="M5 0l154 725h270q111 0 177 -41.5t66 -126.5q0 -56 -33 -102t-91 -73q85 -50 85 -143q0 -71 -37.5 -125t-108 -84t-166.5 -30h-316zM299 581l-31 -146h105q52 0 81.5 20t29.5 61q0 27 -21.5 46t-58.5 19h-105zM241 308l-34 -164h114q65 0 97 22t32 69q0 32 -25 52.5
t-70 20.5h-114z" />
    <glyph glyph-name="uni0403" unicode="&#x403;" horiz-adv-x="581" 
d="M159 725h494l-32 -150h-323l-122 -575h-171z" />
    <glyph glyph-name="uni0403" unicode="&#x492;" horiz-adv-x="581" 
d="M159 725h494l-32 -150h-323l-122 -575h-171z" />
    <glyph glyph-name="uni0403" unicode="&#x413;" horiz-adv-x="581" 
d="M159 725h494l-32 -150h-323l-122 -575h-171z" />
    <glyph glyph-name="uni0414" unicode="&#x414;" horiz-adv-x="816" 
d="M760 151l-66 -308h-161l34 157h-453l-34 -157h-161l66 308h69q28 37 47 74t37.5 95t42.5 158l60 247h561l-122 -574h80zM509 151l90 423h-230l-37 -153q-23 -94 -45.5 -160.5t-50.5 -109.5h273z" />
    <glyph glyph-name="uni0401" unicode="&#x401;" horiz-adv-x="616" 
d="M511 0h-506l154 725h506l-32 -151h-335l-27 -126h314l-32 -151h-314l-31 -146h335z" />
    <glyph glyph-name="uni0401" unicode="&#x415;" horiz-adv-x="616" 
d="M511 0h-506l154 725h506l-32 -151h-335l-27 -126h314l-32 -151h-314l-31 -146h335z" />
    <glyph glyph-name="uni0416" unicode="&#x416;" horiz-adv-x="1034" 
d="M463 405l68 320h171l-69 -320l289 320h203l-333 -365l198 -360h-197l-177 323l-68 -323h-171l69 323l-314 -323h-211l365 376l-175 349h200z" />
    <glyph glyph-name="uni0416" unicode="&#x496;" horiz-adv-x="1034" 
d="M463 405l68 320h171l-69 -320l289 320h203l-333 -365l198 -360h-197l-177 323l-68 -323h-171l69 323l-314 -323h-211l365 376l-175 349h200z" />
    <glyph glyph-name="uni0417" unicode="&#x417;" horiz-adv-x="616" 
d="M-11 28l32 149q102 -47 208 -47q81 0 120.5 29.5t39.5 73.5q0 36 -26.5 55.5t-78.5 19.5h-97l27 127h113q49 0 81 23t32 63q0 38 -35.5 56.5t-98.5 18.5q-105 0 -197 -49l32 150q102 40 211 40q132 0 199.5 -48t67.5 -131q0 -61 -38 -108t-98 -67q45 -26 66 -62.5
t21 -88.5q0 -121 -91.5 -183t-249.5 -62q-123 0 -240 41z" />
    <glyph glyph-name="uni0418" unicode="&#x418;" horiz-adv-x="764" 
d="M232 277l403 448h158l-154 -725h-168l95 448l-403 -448h-158l154 725h168z" />
    <glyph glyph-name="uni0418" unicode="&#x4e2;" horiz-adv-x="764" 
d="M232 277l403 448h158l-154 -725h-168l95 448l-403 -448h-158l154 725h168z" />
    <glyph glyph-name="uni0418" unicode="&#x419;" horiz-adv-x="764" 
d="M232 277l403 448h158l-154 -725h-168l95 448l-403 -448h-158l154 725h168z" />
    <glyph glyph-name="uni040C" unicode="&#x40c;" horiz-adv-x="684" 
d="M159 725h171l-69 -319l312 319h204l-358 -361l229 -364h-203l-201 324l-68 -324h-171z" />
    <glyph glyph-name="uni040C" unicode="&#x49a;" horiz-adv-x="684" 
d="M159 725h171l-69 -319l312 319h204l-358 -361l229 -364h-203l-201 324l-68 -324h-171z" />
    <glyph glyph-name="uni040C" unicode="&#x41a;" horiz-adv-x="684" 
d="M159 725h171l-69 -319l312 319h204l-358 -361l229 -364h-203l-201 324l-68 -324h-171z" />
    <glyph glyph-name="uni041B" unicode="&#x41b;" horiz-adv-x="736" 
d="M611 0h-171l122 574h-198l-37 -153q-34 -141 -67.5 -229.5t-92.5 -145t-151 -56.5q-34 0 -61 10l33 155q12 -4 24 -4q39 0 68 44t49 109t47 175l60 246h529z" />
    <glyph glyph-name="uni041C" unicode="&#x41c;" horiz-adv-x="898" 
d="M730 581l-217 -381h-161l-58 380l-123 -580h-166l154 725h256l51 -340l194 340h267l-154 -725h-166z" />
    <glyph glyph-name="uni041D" unicode="&#x41d;" horiz-adv-x="750" 
d="M549 448l59 277h171l-154 -725h-171l63 297h-278l-63 -297h-171l154 725h171l-59 -277h278z" />
    <glyph glyph-name="uni041D" unicode="&#x4a2;" horiz-adv-x="750" 
d="M549 448l59 277h171l-154 -725h-171l63 297h-278l-63 -297h-171l154 725h171l-59 -277h278z" />
    <glyph glyph-name="uni041E" unicode="&#x41e;" horiz-adv-x="790" 
d="M362 -13q-91 0 -163 35t-113 103.5t-41 165.5q0 120 50 222t144.5 163t222.5 61q91 0 163 -35t113 -103.5t41 -165.5q0 -120 -50 -222t-144.5 -163t-222.5 -61zM378 128q70 0 119.5 42t75 107.5t25.5 133.5q0 85 -40.5 135t-111.5 50q-70 0 -119.5 -42t-75 -107.5
t-25.5 -133.5q0 -85 40.5 -135t111.5 -50z" />
    <glyph glyph-name="uni041F" unicode="&#x41f;" horiz-adv-x="740" 
d="M769 725l-154 -725h-171l122 574h-268l-122 -574h-171l154 725h610z" />
    <glyph glyph-name="uni0420" unicode="&#x420;" horiz-adv-x="656" 
d="M398 725q135 0 210.5 -45t75.5 -154q0 -138 -101.5 -206.5t-285.5 -68.5h-68l-53 -251h-171l154 725h239zM299 581l-39 -186h73q166 0 166 97q0 42 -32.5 65.5t-94.5 23.5h-73z" />
    <glyph glyph-name="uni0421" unicode="&#x421;" horiz-adv-x="651" 
d="M430 133q34 0 79.5 9.5t76.5 20.5l-34 -159q-74 -17 -150 -17q-102 0 -182.5 40t-126 114.5t-45.5 174.5q0 128 59.5 223.5t159.5 146.5t217 51q130 0 216 -35l-34 -158q-44 22 -85.5 34.5t-103.5 12.5q-71 0 -127.5 -34t-88.5 -95t-32 -140q0 -92 53 -140.5t148 -48.5z
" />
    <glyph glyph-name="uni0422" unicode="&#x422;" horiz-adv-x="639" 
d="M345 0h-172l122 574h-212l32 151h597l-32 -151h-213z" />
    <glyph glyph-name="uni040E" unicode="&#x40e;" horiz-adv-x="671" 
d="M32 -3l32 152q38 -18 74 -18q30 0 54 10.5t39 27.5l14 15l-151 541h183l86 -363l220 363h190l-396 -601q-39 -59 -75.5 -90.5t-75 -43t-91.5 -11.5q-51 0 -103 18z" />
    <glyph glyph-name="uni040E" unicode="&#x4ee;" horiz-adv-x="671" 
d="M32 -3l32 152q38 -18 74 -18q30 0 54 10.5t39 27.5l14 15l-151 541h183l86 -363l220 363h190l-396 -601q-39 -59 -75.5 -90.5t-75 -43t-91.5 -11.5q-51 0 -103 18z" />
    <glyph glyph-name="uni040E" unicode="&#x423;" horiz-adv-x="671" 
d="M32 -3l32 152q38 -18 74 -18q30 0 54 10.5t39 27.5l14 15l-151 541h183l86 -363l220 363h190l-396 -601q-39 -59 -75.5 -90.5t-75 -43t-91.5 -11.5q-51 0 -103 18z" />
    <glyph glyph-name="uni0424" unicode="&#x424;" horiz-adv-x="928" 
d="M633 669q132 -2 210.5 -68.5t78.5 -188.5q0 -98 -51.5 -174.5t-146 -121.5t-219.5 -51l-20 -88h-174l20 88q-132 2 -210.5 68.5t-78.5 188.5q0 98 51.5 174.5t146 121.5t219.5 51l19 86h174zM431 536q-62 0 -112.5 -27.5t-79.5 -74.5t-29 -102q0 -66 40.5 -99t109.5 -35z
M533 198q62 0 112.5 27.5t79.5 74.5t29 102q0 66 -40.5 99t-109.5 35z" />
    <glyph glyph-name="uni0425" unicode="&#x425;" horiz-adv-x="698" 
d="M130 0h-200l341 375l-177 350h189l110 -217l197 217h202l-327 -359l186 -366h-189l-119 233z" />
    <glyph glyph-name="uni0425" unicode="&#x4b2;" horiz-adv-x="698" 
d="M130 0h-200l341 375l-177 350h189l110 -217l197 217h202l-327 -359l186 -366h-189l-119 233z" />
    <glyph glyph-name="uni0426" unicode="&#x426;" horiz-adv-x="783" 
d="M647 151h80l-66 -308h-161l34 157h-529l154 725h171l-122 -574h268l122 574h171z" />
    <glyph glyph-name="uni0427" unicode="&#x427;" horiz-adv-x="685" 
d="M714 725l-154 -725h-171l60 278q-65 -16 -156 -16q-104 0 -161 46.5t-57 134.5q0 32 7 64l46 218h171l-37 -173q-8 -37 -8 -59q0 -42 26 -61t87 -19q59 0 112 13l64 299h171z" />
    <glyph glyph-name="uni0427" unicode="&#x4b6;" horiz-adv-x="685" 
d="M714 725l-154 -725h-171l60 278q-65 -16 -156 -16q-104 0 -161 46.5t-57 134.5q0 32 7 64l46 218h171l-37 -173q-8 -37 -8 -59q0 -42 26 -61t87 -19q59 0 112 13l64 299h171z" />
    <glyph glyph-name="uni0428" unicode="&#x428;" horiz-adv-x="1019" 
d="M1048 725l-154 -725h-889l154 725h171l-122 -574h188l122 574h171l-122 -574h188l122 574h171z" />
    <glyph glyph-name="uni0428" unicode="&#x429;" horiz-adv-x="1019" 
d="M1048 725l-154 -725h-889l154 725h171l-122 -574h188l122 574h171l-122 -574h188l122 574h171z" />
    <glyph glyph-name="uni042A" unicode="&#x42a;" horiz-adv-x="766" 
d="M467 484q130 0 202 -51.5t72 -163.5q0 -137 -94 -203t-268 -66h-264l122 575h-164l32 150h335l-51 -241h78zM358 340l-41 -196h83q156 0 156 108q0 41 -28 64.5t-86 23.5h-84z" />
    <glyph glyph-name="uni042B" unicode="&#x42b;" horiz-adv-x="925" 
d="M347 484q133 0 203.5 -51t70.5 -164q0 -269 -362 -269h-254l154 725h171l-51 -241h68zM954 725l-154 -725h-171l154 725h171zM248 340l-41 -196h73q78 0 117 25.5t39 81.5q0 43 -26.5 66t-87.5 23h-74z" />
    <glyph glyph-name="uni042C" unicode="&#x42c;" horiz-adv-x="656" 
d="M357 484q130 0 202 -51.5t72 -163.5q0 -137 -94 -203t-268 -66h-264l154 725h171l-51 -241h78zM248 340l-41 -196h83q156 0 156 107q0 42 -28 65.5t-86 23.5h-84z" />
    <glyph glyph-name="uni042D" unicode="&#x42d;" horiz-adv-x="670" 
d="M650 388q0 -125 -50 -215t-145.5 -138t-228.5 -48q-120 0 -227 42l32 150q85 -46 194 -46q202 0 238 164h-305l28 131h280q-26 163 -203 163q-44 0 -85.5 -10t-91.5 -30l32 152q92 34 185 34q165 0 256 -92.5t91 -256.5z" />
    <glyph glyph-name="uni042E" unicode="&#x42e;" horiz-adv-x="1059" 
d="M637 -13q-90 0 -160.5 35t-110.5 103.5t-40 165.5v6h-87l-63 -297h-171l154 725h171l-59 -277h78q27 84 80.5 149.5t131.5 102.5t175 37q90 0 161 -35t111 -103.5t40 -165.5q0 -120 -49.5 -222t-142.5 -163t-219 -61zM653 128q68 0 116.5 42t73 107.5t24.5 133.5
q0 85 -39 135t-108 50q-67 0 -115.5 -42t-73 -107.5t-24.5 -133.5q0 -85 39 -135t107 -50z" />
    <glyph glyph-name="uni042F" unicode="&#x42f;" horiz-adv-x="689" 
d="M564 0h-171l56 263h-73l-234 -263h-206l259 292q-41 23 -68.5 68.5t-27.5 108.5q0 79 42 137t119.5 88.5t180.5 30.5h277zM429 581q-145 0 -145 -96q0 -47 31.5 -62.5t91.5 -15.5h72l37 174h-87z" />
    <glyph glyph-name="uni0402" unicode="&#x402;" horiz-adv-x="825" 
d="M314 0h-172l122 574h-192l32 151h597l-32 -151h-233l-33 -155q74 24 148 24q116 0 173.5 -55.5t57.5 -158.5q0 -129 -87.5 -229t-255.5 -169l-56 132q98 37 160.5 100.5t62.5 135.5q0 49 -30 71t-81 22q-38 0 -64.5 -4.5t-58.5 -15.5z" />
    <glyph glyph-name="uni0404" unicode="&#x404;" horiz-adv-x="663" 
d="M243 428h292l-28 -131h-277q11 -78 62.5 -121t138.5 -43q36 0 80.5 9.5t87.5 29.5l-33 -155q-60 -30 -168 -30q-106 0 -185 40.5t-122 115.5t-43 177q0 120 59 215t165 148.5t240 53.5q108 0 198 -39l-33 -155q-82 48 -174 48q-95 0 -164 -43t-96 -120z" />
    <glyph glyph-name="uni0405" unicode="&#x405;" horiz-adv-x="604" 
d="M5 51l36 169q45 -38 106 -62.5t123 -24.5q122 0 122 72q0 26 -24.5 49.5t-81.5 47.5l-42 18q-77 34 -116.5 82t-39.5 118q0 67 38.5 116t106.5 75t154 26q131 0 220 -51l-34 -158q-44 30 -101.5 46.5t-111.5 16.5q-53 0 -81 -14t-28 -42q0 -25 25 -44t82 -45l41 -19
q169 -75 169 -198q0 -72 -41 -127t-111 -85t-154 -30q-141 0 -257 64z" />
    <glyph glyph-name="uni0406" unicode="&#x406;" horiz-adv-x="509" 
d="M440 151l-32 -151h-427l32 151h128l90 423h-128l32 151h427l-32 -151h-128l-90 -423h128z" />
    <glyph glyph-name="uni0406" unicode="&#x407;" horiz-adv-x="509" 
d="M440 151l-32 -151h-427l32 151h128l90 423h-128l32 151h427l-32 -151h-128l-90 -423h128z" />
    <glyph glyph-name="uni0408" unicode="&#x408;" horiz-adv-x="430" 
d="M-31 5l45 148q45 -19 87 -19q33 0 50.5 14.5t25.5 39.5t20 82l64 304h-141l32 151h312l-105 -493q-25 -120 -86.5 -182.5t-172.5 -62.5q-63 0 -131 18z" />
    <glyph glyph-name="uni0409" unicode="&#x409;" horiz-adv-x="1074" 
d="M775 484q132 0 203 -51.5t71 -163.5q0 -269 -362 -269h-264l122 574h-180l-37 -153q-34 -141 -67.5 -229.5t-92 -145t-150.5 -56.5q-35 0 -62 10l33 155q12 -4 25 -4q38 0 67 44t49 109.5t47 174.5l60 246h511l-51 -241h78zM666 340l-41 -196h83q78 0 117 25.5t39 81.5
q0 43 -26.5 66t-87.5 23h-84z" />
    <glyph glyph-name="uni040A" unicode="&#x40a;" horiz-adv-x="1076" 
d="M759 725l-51 -241h68q132 0 203 -51.5t71 -163.5q0 -269 -362 -269h-254l71 333h-258l-71 -333h-171l154 725h171l-51 -241h258l51 241h171zM677 340l-41 -196h73q78 0 117 25.5t39 81.5q0 43 -26.5 66t-87.5 23h-74z" />
    <glyph glyph-name="uni040B" unicode="&#x40b;" horiz-adv-x="812" 
d="M142 0l122 574h-192l32 151h597l-32 -151h-233l-33 -155q79 24 147 24q104 0 161 -47t57 -134q0 -31 -7 -63l-42 -199h-171l32 152q6 29 6 52q0 45 -27 66.5t-90 21.5q-26 0 -47.5 -3.5t-48.5 -10.5l-59 -278h-172z" />
    <glyph glyph-name="uni040F" unicode="&#x40f;" horiz-adv-x="740" 
d="M615 0h-224l-34 -157h-161l34 157h-225l154 725h171l-122 -574h268l122 574h171z" />
    <glyph glyph-name="uni0490" unicode="&#x490;" horiz-adv-x="581" 
d="M687 882l-66 -307h-323l-122 -575h-171l154 725h333l34 157h161z" />
    <glyph glyph-name="uni0462" unicode="&#x462;" horiz-adv-x="743" 
d="M445 439q132 0 200.5 -45.5t68.5 -145.5q0 -126 -92.5 -187t-269.5 -61h-259l111 523h-138l27 125h138l16 77h171l-16 -77h191l-27 -125h-191l-18 -84h88zM328 304l-34 -160h89q76 0 111 22t35 69q0 34 -21.5 51.5t-82.5 17.5h-97z" />
    <glyph glyph-name="uni0472" unicode="&#x472;" horiz-adv-x="790" 
d="M779 433q0 -120 -50 -222t-144.5 -163t-222.5 -61q-91 0 -163 35t-113 103.5t-41 165.5q0 120 50 222t144.5 163t222.5 61q91 0 163 -35t113 -103.5t41 -165.5zM241 417q48 45 108 45q28 0 50 -8.5t48 -23.5q25 -13 40.5 -19.5t34.5 -6.5q47 0 74 42q-8 70 -47.5 110
t-102.5 40q-76 0 -128.5 -50.5t-76.5 -128.5zM585 317q-46 -48 -110 -48q-28 0 -50 8.5t-48 23.5q-25 13 -40.5 19.5t-34.5 6.5q-24 0 -43 -12t-32 -32q8 -72 47.5 -113.5t103.5 -41.5q79 0 132.5 53.5t74.5 135.5z" />
    <glyph glyph-name="uni0474" unicode="&#x474;" horiz-adv-x="745" 
d="M372 0h-187l-99 725h179l53 -533l164 322q58 114 120 167.5t145 53.5q45 0 75 -10l-34 -160q-20 9 -38 9q-29 0 -54 -18.5t-58 -77.5z" />
    <glyph glyph-name="uni04AE" unicode="&#x4ae;" horiz-adv-x="694" 
d="M259 271l-180 454h176l118 -300l232 300h198l-374 -456l-57 -269h-171z" />
    <glyph glyph-name="uni04AE" unicode="&#x4b0;" horiz-adv-x="694" 
d="M259 271l-180 454h176l118 -300l232 300h198l-374 -456l-57 -269h-171z" />
    <glyph glyph-name="uni04BA" unicode="&#x4ba;" horiz-adv-x="688" 
d="M5 0l154 725h171l-57 -266q83 24 161 24q106 0 161 -45.5t55 -131.5q0 -30 -8 -68l-51 -238h-171l41 192q7 37 7 55q0 44 -26.5 64.5t-86.5 20.5q-56 0 -113 -20l-66 -312h-171z" />
    <glyph glyph-name="uni04C0" unicode="&#x4c0;" horiz-adv-x="499" 
d="M436 151l-32 -151h-427l32 151h128l90 423h-128l32 151h427l-32 -151h-128l-90 -423h128z" />
    <glyph glyph-name="uni04D8" unicode="&#x4d8;" horiz-adv-x="768" 
d="M34 288q0 62 18 132h528v3q0 79 -66 123.5t-174 44.5q-101 0 -197 -23l32 151q81 18 190 18q112 0 200.5 -40t138 -114.5t49.5 -173.5q0 -120 -53 -216.5t-146.5 -151t-210.5 -54.5q-95 0 -164.5 37t-107 105t-37.5 159zM571 298h-361q-5 -20 -5 -45q0 -61 40 -95.5
t109 -34.5q92 0 145 48t72 127z" />
    <glyph glyph-name="uni04E8" unicode="&#x4e8;" horiz-adv-x="790" 
d="M45 291q0 120 50 222t144.5 163t222.5 61q91 0 163 -35t113 -103.5t41 -165.5q0 -120 -50 -222t-144.5 -163t-222.5 -61q-91 0 -163 35t-113 103.5t-41 165.5zM246 432h351q-5 76 -45 120t-106 44q-73 0 -124 -46t-76 -118zM586 317h-360v-4q0 -85 40.5 -135t111.5 -50
q79 0 132.5 53.5t75.5 135.5z" />
    <glyph glyph-name="uni0430" unicode="&#x430;" horiz-adv-x="578" 
d="M387 349v12q0 60 -119 60q-45 0 -84 -10t-83 -31l29 135q84 39 190 39q111 0 166.5 -46t55.5 -132q0 -30 -6.5 -70t-24.5 -110q-13 -51 -23 -105.5t-13 -90.5h-154l11 75q-30 -43 -73 -65.5t-95 -22.5q-50 0 -88.5 19.5t-59 53t-20.5 74.5q0 102 97 150.5t294 64.5z
M367 231l7 24q-205 -7 -205 -100q0 -26 15 -41t46 -15q99 0 137 132z" />
    <glyph glyph-name="uni0431" unicode="&#x431;" horiz-adv-x="636" 
d="M49 331l12 55q33 150 130.5 241.5t266.5 108.5q103 10 184 28l-31 -146q-83 -18 -172 -28q-91 -10 -149.5 -45t-87.5 -111q38 45 89.5 67.5t109.5 22.5q55 0 102.5 -25.5t76 -76.5t28.5 -122q0 -74 -33 -146t-104.5 -119.5t-179.5 -47.5q-115 0 -183.5 60t-68.5 174
q0 63 10 110zM343 399q-64 0 -100 -50t-36 -121q0 -56 24 -84.5t71 -28.5q64 0 100 50t36 121q0 56 -24 84.5t-71 28.5z" />
    <glyph glyph-name="uni0432" unicode="&#x432;" horiz-adv-x="580" 
d="M373 538q81 0 128.5 -32t47.5 -99q0 -45 -22 -72.5t-65 -45.5q31 -12 50.5 -41t19.5 -72q0 -87 -71.5 -131.5t-184.5 -44.5h-277l114 538h260zM308 321q38 0 60 14.5t22 42.5q0 23 -15.5 36t-43.5 13h-76l-23 -106h76zM213 230l-26 -119h88q47 0 72 18t25 47
q0 25 -19 39.5t-52 14.5h-88z" />
    <glyph glyph-name="uni0433" unicode="&#x433;" horiz-adv-x="483" 
d="M517 538l-25 -117h-239l-89 -421h-165l114 538h404z" />
    <glyph glyph-name="uni0433" unicode="&#x493;" horiz-adv-x="483" 
d="M517 538l-25 -117h-239l-89 -421h-165l114 538h404z" />
    <glyph glyph-name="uni0433" unicode="&#x453;" horiz-adv-x="483" 
d="M517 538l-25 -117h-239l-89 -421h-165l114 538h404z" />
    <glyph glyph-name="uni0434" unicode="&#x434;" horiz-adv-x="666" 
d="M611 117l-55 -261h-155l30 144h-320l-30 -144h-155l55 261h39q26 24 42.5 48t33 70.5t37.5 131.5l41 171h456l-89 -421h70zM376 117l65 304h-154l-15 -59q-25 -101 -45 -157t-45 -88h194z" />
    <glyph glyph-name="uni0435" unicode="&#x435;" horiz-adv-x="598" 
d="M576 313q0 -44 -10 -85h-378q8 -54 44 -80t107 -26q89 0 166 29l-30 -138q-27 -12 -73.5 -19t-85.5 -7q-136 0 -213 64.5t-77 185.5q0 88 39.5 160.5t112.5 114.5t169 42q74 0 125.5 -32.5t77.5 -87t26 -121.5zM195 327h230q1 51 -25 77t-72 26q-43 0 -80.5 -25.5
t-52.5 -77.5z" />
    <glyph glyph-name="uni0435" unicode="&#x451;" horiz-adv-x="598" 
d="M576 313q0 -44 -10 -85h-378q8 -54 44 -80t107 -26q89 0 166 29l-30 -138q-27 -12 -73.5 -19t-85.5 -7q-136 0 -213 64.5t-77 185.5q0 88 39.5 160.5t112.5 114.5t169 42q74 0 125.5 -32.5t77.5 -87t26 -121.5zM195 327h230q1 51 -25 77t-72 26q-43 0 -80.5 -25.5
t-52.5 -77.5z" />
    <glyph glyph-name="uni0436" unicode="&#x436;" horiz-adv-x="877" 
d="M469 0h-165l49 232l-224 -232h-205l284 293l-122 245h184l102 -215l46 215h165l-46 -215l194 215h193l-246 -263l158 -275h-192l-126 232z" />
    <glyph glyph-name="uni0436" unicode="&#x497;" horiz-adv-x="877" 
d="M469 0h-165l49 232l-224 -232h-205l284 293l-122 245h184l102 -215l46 215h165l-46 -215l194 215h193l-246 -263l158 -275h-192l-126 232z" />
    <glyph glyph-name="uni0437" unicode="&#x437;" horiz-adv-x="520" 
d="M-23 23l29 133q34 -21 81 -32.5t99 -11.5q59 0 92 15.5t33 47.5q0 48 -77 48h-108l22 104h97q40 0 65 12.5t25 36.5q0 23 -24.5 38t-72.5 15q-41 0 -86 -10.5t-85 -31.5l29 135q87 32 181 32q102 0 159 -36.5t57 -105.5q0 -90 -85 -123q32 -23 47.5 -50.5t15.5 -67.5
q0 -89 -73 -136.5t-204 -47.5q-64 0 -122 10t-95 26z" />
    <glyph glyph-name="uni0438" unicode="&#x438;" horiz-adv-x="639" 
d="M211 238l282 300h145l-114 -538h-162l63 297l-281 -297h-145l114 538h162z" />
    <glyph glyph-name="uni0438" unicode="&#x4e3;" horiz-adv-x="639" 
d="M211 238l282 300h145l-114 -538h-162l63 297l-281 -297h-145l114 538h162z" />
    <glyph glyph-name="uni0438" unicode="&#x439;" horiz-adv-x="639" 
d="M211 238l282 300h145l-114 -538h-162l63 297l-281 -297h-145l114 538h162z" />
    <glyph glyph-name="uni043A" unicode="&#x43a;" horiz-adv-x="577" 
d="M-1 0l114 538h165l-45 -211l203 211h193l-256 -263l170 -275h-192l-138 232l-49 -232h-165z" />
    <glyph glyph-name="uni043A" unicode="&#x49b;" horiz-adv-x="577" 
d="M-1 0l114 538h165l-45 -211l203 211h193l-256 -263l170 -275h-192l-138 232l-49 -232h-165z" />
    <glyph glyph-name="uni043A" unicode="&#x45c;" horiz-adv-x="577" 
d="M-1 0l114 538h165l-45 -211l203 211h193l-256 -263l170 -275h-192l-138 232l-49 -232h-165z" />
    <glyph glyph-name="uni043B" unicode="&#x43b;" horiz-adv-x="619" 
d="M618 538l-114 -538h-165l89 421h-136l-17 -71q-32 -134 -64.5 -211t-77 -113t-111.5 -36q-38 0 -66 10l31 147q18 -4 29 -4q30 0 48 19.5t32 62t37 136.5l44 177h441z" />
    <glyph glyph-name="uni043C" unicode="&#x43c;" horiz-adv-x="796" 
d="M403 296l151 242h241l-114 -538h-155l88 412l-192 -290h-113l-68 289l-87 -411h-155l114 538h233z" />
    <glyph glyph-name="uni043D" unicode="&#x43d;" horiz-adv-x="622" 
d="M621 538l-114 -538h-165l46 217h-178l-46 -217h-165l114 538h165l-43 -204h178l43 204h165z" />
    <glyph glyph-name="uni043D" unicode="&#x4a3;" horiz-adv-x="622" 
d="M621 538l-114 -538h-165l46 217h-178l-46 -217h-165l114 538h165l-43 -204h178l43 204h165z" />
    <glyph glyph-name="uni043E" unicode="&#x43e;" horiz-adv-x="618" 
d="M23 220q0 76 33.5 153t105 129t179.5 52q113 0 183 -59.5t70 -173.5q0 -76 -33.5 -153t-105 -129t-178.5 -52q-113 0 -183.5 59.5t-70.5 173.5zM424 313q0 56 -24 84.5t-71 28.5q-64 0 -100 -58t-36 -140q0 -56 24 -84.5t71 -28.5q64 0 100 58t36 140z" />
    <glyph glyph-name="uni043F" unicode="&#x43f;" horiz-adv-x="612" 
d="M113 538h498l-114 -538h-165l89 421h-168l-89 -421h-165z" />
    <glyph glyph-name="uni0440" unicode="&#x440;" horiz-adv-x="641" 
d="M264 473q31 40 72.5 58.5t83.5 18.5q58 0 102.5 -27.5t69 -77.5t24.5 -115q0 -86 -33 -165t-97 -128.5t-152 -49.5q-58 0 -96 26.5t-57 66.5l-58 -275h-165l155 733h164zM303 115q72 0 107 56.5t35 132.5q0 53 -24 85.5t-69 32.5q-49 0 -82 -31.5t-48.5 -77t-15.5 -86.5
q0 -48 25.5 -80t71.5 -32z" />
    <glyph glyph-name="uni0441" unicode="&#x441;" horiz-adv-x="493" 
d="M327 122q44 0 99 15l-30 -137q-67 -13 -109 -13q-120 0 -191 62.5t-71 175.5q0 102 45 176.5t122 113.5t172 39q77 0 150 -24l-30 -137q-34 13 -62.5 19.5t-61.5 6.5q-47 0 -85 -21t-59.5 -59.5t-21.5 -89.5q0 -61 34 -94t99 -33z" />
    <glyph glyph-name="uni0442" unicode="&#x442;" horiz-adv-x="546" 
d="M581 538l-25 -117h-169l-89 -421h-165l89 421h-169l25 117h503z" />
    <glyph glyph-name="uni0443" unicode="&#x443;" horiz-adv-x="558" 
d="M623 538l-443 -733h-171l135 222l-95 511h168l57 -316l177 316h172z" />
    <glyph glyph-name="uni0443" unicode="&#x4ef;" horiz-adv-x="558" 
d="M623 538l-443 -733h-171l135 222l-95 511h168l57 -316l177 316h172z" />
    <glyph glyph-name="uni0443" unicode="&#x45e;" horiz-adv-x="558" 
d="M623 538l-443 -733h-171l135 222l-95 511h168l57 -316l177 316h172z" />
    <glyph glyph-name="uni0444" unicode="&#x444;" horiz-adv-x="819" 
d="M390 -195h-160l39 182q-102 4 -174 60t-72 176q0 100 50 174.5t133.5 114t182.5 42.5l43 201h160l-43 -201q102 -4 173 -62.5t71 -184.5q0 -97 -49.5 -168.5t-133 -110t-181.5 -41.5zM363 431q-50 -3 -91 -28t-65 -69.5t-24 -103.5q0 -65 30.5 -90t81.5 -30zM455 110
q50 3 90.5 26.5t64 66t23.5 97.5q0 71 -30 98.5t-80 32.5z" />
    <glyph glyph-name="uni0445" unicode="&#x445;" horiz-adv-x="575" 
d="M446 538h186l-256 -269l151 -269h-169l-89 156l-148 -156h-186l265 279l-146 259h172l81 -146z" />
    <glyph glyph-name="uni0445" unicode="&#x4b3;" horiz-adv-x="575" 
d="M446 538h186l-256 -269l151 -269h-169l-89 156l-148 -156h-186l265 279l-146 259h172l81 -146z" />
    <glyph glyph-name="uni0446" unicode="&#x446;" horiz-adv-x="647" 
d="M611 538l-89 -421h70l-55 -261h-155l30 144h-413l114 538h165l-89 -421h168l89 421h165z" />
    <glyph glyph-name="uni0447" unicode="&#x447;" horiz-adv-x="583" 
d="M468 0h-165l40 191q-64 -8 -115 -8q-91 0 -138 35t-47 104q0 20 7 57l34 159h165l-33 -158q-2 -14 -2 -21q0 -55 77 -55q31 0 79 10l47 224h165z" />
    <glyph glyph-name="uni0447" unicode="&#x4b7;" horiz-adv-x="583" 
d="M468 0h-165l40 191q-64 -8 -115 -8q-91 0 -138 35t-47 104q0 20 7 57l34 159h165l-33 -158q-2 -14 -2 -21q0 -55 77 -55q31 0 79 10l47 224h165z" />
    <glyph glyph-name="uni0448" unicode="&#x448;" horiz-adv-x="915" 
d="M749 538h165l-114 -538h-801l114 538h165l-89 -421h153l89 421h165l-89 -421h153z" />
    <glyph glyph-name="uni0448" unicode="&#x449;" horiz-adv-x="915" 
d="M749 538h165l-114 -538h-801l114 538h165l-89 -421h153l89 421h165l-89 -421h153z" />
    <glyph glyph-name="uni044A" unicode="&#x44a;" horiz-adv-x="655" 
d="M424 371q194 0 194 -162q0 -97 -67 -153t-193 -56h-276l89 421h-130l25 117h296l-35 -167h97zM359 111q48 0 74.5 23t26.5 61q0 32 -19.5 48.5t-55.5 16.5h-82l-32 -149h88z" />
    <glyph glyph-name="uni044B" unicode="&#x44b;" horiz-adv-x="827" 
d="M340 371q194 0 194 -162q0 -97 -67 -153t-193 -56h-275l114 538h165l-35 -167h97zM826 538l-114 -538h-166l114 538h166zM275 111q48 0 74.5 23t26.5 61q0 32 -19.5 48.5t-55.5 16.5h-82l-32 -149h88z" />
    <glyph glyph-name="uni044C" unicode="&#x44c;" horiz-adv-x="571" 
d="M340 371q194 0 194 -162q0 -97 -67 -153t-193 -56h-275l114 538h165l-35 -167h97zM275 111q48 0 74.5 23t26.5 61q0 32 -19.5 48.5t-55.5 16.5h-82l-32 -149h88z" />
    <glyph glyph-name="uni044D" unicode="&#x44d;" horiz-adv-x="512" 
d="M484 299q0 -93 -41 -164t-117.5 -109.5t-178.5 -38.5q-46 0 -91.5 8t-74.5 21l29 138q58 -37 136 -37q68 0 112 26t60 76h-222l24 115h203q-21 90 -132 90q-62 0 -127 -25l30 138q54 17 127 17q125 0 194 -67t69 -188z" />
    <glyph glyph-name="uni044E" unicode="&#x44e;" horiz-adv-x="876" 
d="M288 220v11h-75l-49 -231h-165l114 538h165l-40 -190h73q32 89 105 147.5t186 58.5q112 0 180.5 -59.5t68.5 -173.5q0 -76 -33 -153t-103.5 -129t-176.5 -52q-112 0 -181 59.5t-69 173.5zM681 313q0 56 -23 84.5t-68 28.5q-62 0 -97 -58t-35 -140q0 -56 23 -84.5
t68 -28.5q62 0 97 58t35 140z" />
    <glyph glyph-name="uni044F" unicode="&#x44f;" horiz-adv-x="596" 
d="M595 538l-114 -538h-166l35 167h-79l-137 -167h-181l174 212q-28 17 -45.5 48.5t-17.5 74.5q0 53 29 99.5t87.5 75t141.5 28.5h273zM319 426q-49 0 -74.5 -24t-25.5 -58q0 -29 19 -47t54 -18h82l31 147h-86z" />
    <glyph glyph-name="uni0452" unicode="&#x452;" horiz-adv-x="629" 
d="M544 107q-23 -110 -53 -177.5t-78 -101.5t-122 -34q-40 0 -71 10l24 115q9 -3 21 -3q31 0 50.5 17t33 54t27.5 104l40 189q9 47 9 67q0 75 -68 75q-50 0 -84 -35.5t-49 -106.5l-60 -280h-165l124 587h-76l22 100h75l15 68h165l-15 -68h121l-22 -100h-120l-25 -121
q31 38 73.5 60.5t104.5 22.5q75 0 115 -39t40 -118q0 -29 -11 -90z" />
    <glyph glyph-name="uni0454" unicode="&#x454;" horiz-adv-x="508" 
d="M202 334h216l-24 -115h-210q8 -56 44 -79t86 -23q69 0 130 30l-30 -138q-51 -22 -129 -22q-120 0 -190 61t-70 179q0 93 41 167.5t117.5 117t177.5 42.5q95 0 166 -30l-29 -138q-56 38 -136 38q-57 0 -98 -24t-62 -66z" />
    <glyph glyph-name="uni0455" unicode="&#x455;" horiz-adv-x="477" 
d="M13 168q47 -24 95.5 -36.5t88.5 -12.5q34 0 53.5 11t19.5 30q0 18 -14.5 30t-48.5 26l-23 9q-120 46 -120 153q0 51 28 90.5t82 62.5t130 23q86 0 166 -31l-30 -137q-83 36 -151 36q-36 0 -54.5 -9t-18.5 -25q0 -13 13.5 -24.5t48.5 -26.5l23 -10q70 -31 101.5 -65.5
t31.5 -84.5q0 -55 -30 -98t-86.5 -67.5t-132.5 -24.5q-109 0 -202 43z" />
    <glyph glyph-name="uni0456" unicode="&#x456;" horiz-adv-x="279" 
d="M132 623l28 132h165l-28 -132h-165zM-2 0l115 538h166l-115 -538h-166z" />
    <glyph glyph-name="uni0456" unicode="&#x457;" horiz-adv-x="279" 
d="M132 623l28 132h165l-28 -132h-165zM-2 0l115 538h166l-115 -538h-166z" />
    <glyph glyph-name="uni0458" unicode="&#x458;" horiz-adv-x="321" 
d="M173 623l28 132h165l-28 -132h-165zM-94 -192l25 117q33 -12 53 -12q22 0 33.5 12.5t16.5 39.5l96 456h-79l25 117h244l-122 -577q-35 -167 -192 -167q-44 0 -100 14z" />
    <glyph glyph-name="uni0459" unicode="&#x459;" horiz-adv-x="891" 
d="M275 350q-32 -134 -64.5 -211t-77 -113t-111.5 -36q-38 0 -66 10l31 147q18 -4 29 -4q30 0 48 19.5t32 62t37 136.5l44 177h431l-35 -167h87q194 0 194 -162q0 -97 -67 -153t-193 -56h-265l89 421h-126zM595 111q48 0 74.5 23t26.5 61q0 32 -19.5 48.5t-55.5 16.5h-72
l-32 -149h78z" />
    <glyph glyph-name="uni045A" unicode="&#x45a;" horiz-adv-x="901" 
d="M669 361q99 0 146.5 -40t47.5 -118q0 -94 -67 -148.5t-193 -54.5h-266l52 244h-173l-52 -244h-165l114 538h165l-38 -177h173l38 177h165l-38 -177h91zM604 111q48 0 74.5 21.5t26.5 56.5q0 61 -75 61h-75l-30 -139h79z" />
    <glyph glyph-name="uni045B" unicode="&#x45b;" 
d="M324 755l-15 -68h121l-22 -100h-120l-25 -121q31 38 73.5 60.5t104.5 22.5q75 0 115 -39t40 -118q0 -38 -11 -90l-64 -302h-165l60 280q9 39 9 67q0 75 -68 75q-50 0 -84 -35.5t-49 -106.5l-60 -280h-165l124 587h-76l22 100h75l15 68h165z" />
    <glyph glyph-name="uni045F" unicode="&#x45f;" horiz-adv-x="611" 
d="M610 538l-114 -538h-172l-30 -144h-155l30 144h-170l113 538h166l-90 -421h168l89 421h165z" />
    <glyph glyph-name="uni0491" unicode="&#x491;" horiz-adv-x="483" 
d="M547 682l-55 -261h-239l-89 -421h-165l114 538h249l30 144h155z" />
    <glyph glyph-name="uni0463" unicode="&#x463;" horiz-adv-x="612" 
d="M380 355q194 0 194 -156q0 -93 -66.5 -146t-193.5 -53h-276l89 421h-85l25 117h85l46 217h165l-46 -217h144l-25 -117h-144l-14 -66h102zM315 111q48 0 74.5 18.5t26.5 51.5q0 29 -20 46t-56 17h-85l-29 -133h89z" />
    <glyph glyph-name="uni0473" unicode="&#x473;" horiz-adv-x="618" 
d="M594 321q0 -76 -33.5 -153t-105 -129t-178.5 -52q-113 0 -183.5 59.5t-70.5 173.5q0 76 33.5 153t105 129t179.5 52q113 0 183 -59.5t70 -173.5zM198 289q33 47 76 47q17 0 28.5 -4.5t25.5 -13.5q14 -8 23 -11.5t22 -3.5q14 0 27.5 6.5t23.5 17.5q-6 99 -95 99
q-53 0 -86.5 -36t-44.5 -101zM414 225q-29 -32 -65 -32q-17 0 -28.5 4.5t-25.5 13.5q-14 8 -23 11.5t-22 3.5q-15 0 -30 -8t-25 -21q6 -40 29.5 -61t63.5 -21q47 0 79.5 28.5t46.5 81.5z" />
    <glyph glyph-name="uni0475" unicode="&#x475;" horiz-adv-x="601" 
d="M359 384q43 91 92 127.5t119 36.5q45 0 68 -10l-31 -149q-13 6 -31 6q-24 0 -45.5 -16t-43.5 -57l-172 -322h-191l-72 538h164l37 -379z" />
    <glyph glyph-name="uni04AF" unicode="&#x4af;" horiz-adv-x="540" 
d="M600 538l-300 -538l-41 -195h-165l41 195l-85 538h164l39 -366l174 366h173z" />
    <glyph glyph-name="uni04AF" unicode="&#x4b1;" horiz-adv-x="540" 
d="M600 538l-300 -538l-41 -195h-165l41 195l-85 538h164l39 -366l174 366h173z" />
    <glyph glyph-name="uni04BB" unicode="&#x4bb;" 
d="M263 466q31 39 73.5 61.5t104.5 22.5q75 0 115 -39t40 -118q0 -39 -11 -91l-64 -302h-165l60 280q9 39 9 67q0 75 -68 75q-50 0 -84 -35.5t-49 -106.5l-60 -280h-165l160 755h165z" />
    <glyph glyph-name="uni04CF" unicode="&#x4cf;" horiz-adv-x="279" 
d="M159 755h165l-160 -755h-165z" />
    <glyph glyph-name="uni04D9" unicode="&#x4d9;" horiz-adv-x="598" 
d="M571 304q0 -88 -39.5 -160.5t-112.5 -114.5t-169 -42q-74 0 -125.5 32.5t-77.5 87t-26 121.5q0 44 10 85h378q-8 54 -44 80t-107 26q-89 0 -166 -29l30 138q27 12 73.5 19t85.5 7q136 0 213 -64.5t77 -185.5zM402 214h-230q-1 -51 25 -77t72 -26q43 0 80.5 25.5
t52.5 77.5z" />
    <glyph glyph-name="uni04E9" unicode="&#x4e9;" horiz-adv-x="618" 
d="M23 220q0 76 33.5 153t105 129t179.5 52q113 0 183 -59.5t70 -173.5q0 -76 -33.5 -153t-105 -129t-178.5 -52q-113 0 -183.5 59.5t-70.5 173.5zM208 325h216q-6 101 -95 101q-43 0 -73.5 -27t-47.5 -74zM409 218h-216q2 -51 26.5 -77t68.5 -26t74.5 28t46.5 75z" />
    <glyph glyph-name="quoteright" unicode="&#x2019;" horiz-adv-x="265" 
d="M178 548h-72l38 177h184l-39 -187l-134 -148h-98z" />
    <glyph glyph-name="bullet" unicode="&#x2022;" horiz-adv-x="491" 
d="M241 456q52 0 94 -23.5t66 -64.5t24 -89q0 -51 -24 -93t-66 -66t-94 -24q-48 0 -88 24t-64 66t-24 93q0 48 24 88.5t64.5 64.5t87.5 24z" />
    <glyph glyph-name="glyph166" horiz-adv-x="280" 
d="M580 725l-682 -725h-158l682 725h158z" />
    <glyph glyph-name="zero.numr" horiz-adv-x="413" 
d="M242 310q-79 0 -123 46t-44 128q0 63 21 120t65.5 93.5t112.5 36.5q80 0 124 -46t44 -128q0 -63 -21 -120t-66 -93.5t-113 -36.5zM248 407q35 0 51 45t16 98q0 84 -45 84q-36 0 -52 -45t-16 -99q0 -83 46 -83z" />
    <glyph glyph-name="zero.dnom" horiz-adv-x="413" 
d="M176 -6q-79 0 -123 46t-44 128q0 63 21 120t65.5 93.5t112.5 36.5q80 0 124 -46t44 -128q0 -63 -21 -120t-66 -93.5t-113 -36.5zM182 91q35 0 51 45t16 98q0 84 -45 84q-36 0 -52 -45t-16 -99q0 -83 46 -83z" />
    </font>
</defs>
</svg>
